<svg version="1.1" id="Layer_1" xmlns="http://www.w3.org/2000/svg" x="0px"
     y="0px"
     width="100%" viewBox="0 0 600 688" enable-background="new 0 0 600 688" xml:space="preserve">
<path fill="#ffffff" opacity="1.000000" stroke="none" fill-opacity="0"
      d="
M315.000000,689.000000 
	C210.000015,689.000000 105.500038,689.000000 1.000042,689.000000 
	C1.000028,459.666718 1.000028,230.333450 1.000014,1.000134 
	C200.999893,1.000090 400.999786,1.000090 600.999756,1.000045 
	C600.999878,230.333191 600.999878,459.666382 600.999939,688.999756 
	C505.833344,689.000000 410.666656,689.000000 315.000000,689.000000 
M51.147717,194.580139 
	C51.128250,291.076630 51.132248,387.573181 50.991634,484.069489 
	C50.986721,487.442871 52.576221,488.620239 55.038391,489.963165 
	C135.194748,533.681580 215.324631,577.448486 295.473145,621.181335 
	C296.882385,621.950317 298.470917,622.390808 300.702148,623.045654 
	C301.011200,622.924866 301.337830,622.836426 301.626831,622.678833 
	C382.972534,578.315613 464.306610,533.930908 545.696411,489.648651 
	C548.551758,488.095093 549.015137,486.205841 549.032593,483.305542 
	C549.598328,389.014984 550.246643,294.724915 550.866699,200.434677 
	C550.880859,198.279099 550.711548,196.122299 550.439636,193.355209 
	C549.584473,192.843567 548.746582,192.300003 547.871643,191.824799 
	C466.862122,147.824326 385.835510,103.855194 304.886871,59.743092 
	C301.454102,57.872467 299.042908,58.152073 295.798218,59.926403 
	C216.372910,103.359718 136.889938,146.687546 57.427341,190.052704 
	C55.409023,191.154175 53.504036,192.463303 51.147717,194.580139 
z"/>
    <path fill="#00D3B9" opacity="1.000000" stroke="none"
          d="
M550.627869,193.966080 
	C550.711548,196.122299 550.880859,198.279099 550.866699,200.434677 
	C550.246643,294.724915 549.598328,389.014984 549.032593,483.305542 
	C549.015137,486.205841 548.551758,488.095093 545.696411,489.648651 
	C464.306610,533.930908 382.972534,578.315613 301.626831,622.678833 
	C301.337830,622.836426 301.011200,622.924866 300.313721,622.547913 
	C299.929260,524.479858 299.933228,426.909515 300.282410,329.206879 
	C302.713287,328.036163 304.831940,327.058685 306.879730,325.950317 
	C346.264313,304.632721 385.638763,283.296448 425.019135,261.971069 
	C466.886627,239.298889 508.758118,216.634094 550.627869,193.966080 
z"/>
    <path fill="#82EDDF" opacity="1.000000" stroke="none"
          d="
M299.937195,329.339172 
	C299.933228,426.909515 299.929260,524.479858 299.950562,622.517334 
	C298.470917,622.390808 296.882385,621.950317 295.473145,621.181335 
	C215.324631,577.448486 135.194748,533.681580 55.038391,489.963165 
	C52.576221,488.620239 50.986721,487.442871 50.991634,484.069489 
	C51.132248,387.573181 51.128250,291.076630 51.604683,194.334839 
	C134.686829,239.172745 217.312012,284.255951 299.937195,329.339172 
z"/>
    <path fill="#0084C1" opacity="1.000000" stroke="none"
          d="
M300.282410,329.206879 
	C217.312012,284.255951 134.686829,239.172745 51.803925,193.882538 
	C53.504036,192.463303 55.409023,191.154175 57.427341,190.052704 
	C136.889938,146.687546 216.372910,103.359718 295.798218,59.926403 
	C299.042908,58.152073 301.454102,57.872467 304.886871,59.743092 
	C385.835510,103.855194 466.862122,147.824326 547.871643,191.824799 
	C548.746582,192.300003 549.584473,192.843567 550.533752,193.660645 
	C508.758118,216.634094 466.886627,239.298889 425.019135,261.971069 
	C385.638763,283.296448 346.264313,304.632721 306.879730,325.950317 
	C304.831940,327.058685 302.713287,328.036163 300.282410,329.206879 
z"/>
</svg>