<svg version="1.1" id="Layer_1" xmlns="http://www.w3.org/2000/svg" x="0px"
     y="0px"
     width="100%" viewBox="0 0 253 243" enable-background="new 0 0 253 243" xml:space="preserve">
<path fill="#FEFDFE" opacity="0" stroke="none"
      d="
M254.000000,92.000000 
	C254.000000,143.000000 254.000000,193.500000 254.000000,244.000000 
	C169.666672,244.000000 85.333336,244.000000 1.000000,244.000000 
	C1.000000,163.000000 1.000000,82.000000 1.000000,1.000000 
	C85.333336,1.000000 169.666672,1.000000 254.000000,1.000000 
	C254.000000,31.166666 254.000000,61.333332 254.000000,92.000000 
M138.481415,138.180222 
	C138.226196,138.379639 138.060776,138.636826 137.721512,139.589249 
	C135.489349,143.758469 133.257187,147.927689 130.513290,152.604568 
	C124.254662,169.321915 125.996376,185.136017 136.012344,200.574265 
	C136.302414,200.785294 136.592484,200.996323 136.888824,201.107788 
	C136.888824,201.107788 136.797501,201.147934 136.956512,201.809372 
	C138.581451,203.608353 140.206375,205.407333 141.940857,207.078125 
	C141.940857,207.078125 141.793594,207.160263 142.012589,207.791977 
	C145.671890,210.534760 149.331207,213.277542 152.997238,215.997375 
	C152.997238,215.997375 152.977371,216.013214 153.390411,216.562424 
	C154.112854,216.965424 154.818802,217.401978 155.560150,217.766525 
	C175.119736,227.384537 199.147980,223.873718 213.297028,209.286804 
	C215.938324,206.229172 218.579620,203.171555 221.869049,199.925964 
	C223.577927,195.952179 225.286804,191.978394 227.364410,187.336761 
	C231.417023,177.941895 231.167114,168.435196 228.087799,158.957764 
	C228.087799,158.957764 228.190231,158.941238 228.183456,158.285919 
	C228.151764,157.855728 228.120071,157.425537 228.200836,156.211700 
	C225.490219,147.726624 222.030502,139.732803 213.910889,134.187317 
	C213.378769,133.759918 212.846664,133.332504 212.041168,132.401749 
	C211.709244,132.228928 211.377319,132.056107 211.063507,131.967514 
	C211.063507,131.967514 211.124344,131.906509 210.994278,131.230087 
	C207.686234,129.416931 204.378174,127.603783 201.063812,125.897102 
	C201.063812,125.897102 201.163834,125.860023 200.793610,125.244186 
	C194.077835,121.240524 186.858612,119.304184 178.114731,119.781227 
	C174.405579,120.234467 170.696426,120.687706 166.200790,121.022858 
	C163.213409,122.052231 160.226013,123.081604 156.450912,123.958588 
	C154.924225,123.607605 153.397522,123.256615 151.857880,122.902649 
	C151.106888,124.925621 150.545563,126.437630 149.988388,128.006805 
	C149.988388,128.006805 149.939240,127.977295 149.541840,128.124496 
	C149.285812,128.274017 149.112335,128.489868 148.827988,129.083527 
	C148.827988,129.083527 148.470566,129.165100 147.866455,129.207855 
	C147.578918,129.473938 147.291397,129.740021 146.812103,130.490799 
	C146.530487,130.660599 146.248886,130.830399 145.286667,131.046707 
	C144.530685,132.035294 143.774704,133.023880 143.000610,134.000610 
	C143.000610,134.000610 143.012238,134.018646 142.329422,134.057114 
	C141.549530,135.029922 140.769653,136.002747 139.990555,137.007660 
	C139.990555,137.007660 139.965012,136.987488 139.523865,137.148651 
	C139.245682,137.322311 139.056458,137.565277 138.974411,137.957413 
	C138.974411,137.957413 138.892578,137.961487 138.481415,138.180222 
M105.707390,205.055923 
	C105.868103,204.766327 106.028816,204.476715 106.671288,204.021698 
	C106.830261,203.730865 106.989235,203.440033 107.590172,203.036774 
	C107.917061,202.942032 108.111801,202.727432 108.761765,202.022888 
	C109.090385,201.428406 109.419006,200.833908 110.331467,199.960403 
	C114.623116,193.648514 116.889069,186.650772 118.105362,178.715927 
	C119.776726,171.536743 119.064796,164.586319 116.075462,157.956573 
	C116.075462,157.956573 116.183685,157.957382 116.217285,157.371613 
	C116.038223,156.279800 115.859169,155.188004 115.709961,153.379211 
	C114.926865,151.567627 114.322594,149.650757 113.328972,147.963135 
	C109.523712,141.500046 106.056984,134.720398 98.799782,130.282303 
	C91.088303,124.657715 82.593979,121.020447 72.280396,119.939705 
	C71.523430,119.966988 70.766457,119.994278 69.106888,119.806480 
	C65.048347,120.191200 60.989807,120.575912 56.137238,120.910728 
	C47.705536,122.471924 40.334675,126.183403 33.297081,132.020340 
	C32.143856,133.312302 30.990631,134.604279 29.197886,136.109665 
	C25.532160,142.404373 21.866436,148.699097 17.831459,155.696747 
	C12.505177,171.517807 14.902114,186.230118 24.371252,200.593552 
	C28.909948,207.300049 34.612381,212.725739 42.111889,216.851791 
	C42.111889,216.851791 42.538467,217.043213 42.538467,217.043213 
	C42.538467,217.043213 43.005856,217.030502 43.482185,217.518524 
	C60.086075,225.315125 76.476860,225.601013 93.240654,216.069382 
	C95.896065,213.782288 98.551468,211.495193 101.716110,209.097168 
	C101.899300,208.819107 102.082489,208.541046 102.933311,208.207214 
	C103.369553,207.553528 103.805794,206.899857 104.742699,206.106323 
	C104.903877,205.811905 105.065048,205.517471 105.707390,205.055923 
M167.904724,98.928146 
	C167.904724,98.928146 167.806885,98.915276 168.402603,98.644318 
	C168.531494,98.037148 168.660370,97.429970 168.741028,96.776886 
	C168.741028,96.776886 168.719193,96.713982 169.477280,96.775604 
	C170.984467,92.959709 172.491653,89.143814 173.840302,85.729301 
	C173.798645,85.648010 174.153473,86.340523 174.924850,87.846062 
	C174.924850,79.596199 175.004547,72.288391 174.803146,64.988335 
	C174.782715,64.248093 173.068771,63.554573 172.070297,62.025204 
	C170.889389,56.489471 169.708466,50.953739 168.365799,44.659725 
	C168.250168,44.589455 166.221970,44.079178 165.791214,42.956161 
	C164.619827,39.902317 162.503082,39.736816 159.987350,40.007076 
	C159.987350,40.007076 159.957474,40.085590 159.778610,39.593277 
	C159.491943,39.409046 159.205292,39.224815 158.996353,39.017876 
	C158.996353,39.017876 158.944992,39.080479 158.929565,38.365788 
	C157.546875,37.257339 156.164200,36.148891 154.445419,34.931835 
	C154.219315,34.817661 154.074875,34.637875 153.739120,33.738598 
	C153.324692,33.547714 152.910248,33.356827 152.199921,33.198238 
	C152.199921,33.198238 151.998047,32.979500 151.726883,32.508423 
	C151.400711,32.371456 151.074539,32.234489 150.305710,32.002605 
	C150.305710,32.002605 149.971603,31.697104 149.755692,31.353912 
	C149.561600,31.148914 149.324829,31.026314 148.448898,30.890963 
	C147.983459,30.537659 147.518005,30.184355 146.892136,29.152811 
	C144.429626,28.168535 141.967117,27.184261 138.760925,26.135059 
	C127.413071,22.860050 116.109650,21.275194 104.263535,26.948324 
	C102.473648,27.535246 100.683754,28.122168 98.176674,28.846249 
	C92.572426,33.252518 86.968178,37.658783 80.855011,42.541664 
	C64.885300,64.354156 65.747894,91.923546 83.229454,110.740120 
	C87.787437,114.177170 92.345428,117.614220 97.250069,121.692871 
	C107.964455,127.412277 119.274734,128.253433 131.801132,125.854805 
	C135.165344,124.888268 138.529556,123.921730 142.522614,122.975754 
	C143.009140,122.641602 143.495667,122.307442 143.998871,122.000847 
	C143.998871,122.000847 143.975266,121.977112 144.374023,121.916763 
	C144.640457,121.819275 144.836288,121.643234 145.436569,120.958229 
	C145.764725,120.688988 146.092896,120.419754 146.902313,120.108864 
	C147.194458,119.945473 147.506439,119.885696 148.503204,119.948303 
	C148.958420,119.542587 149.413635,119.136871 149.895493,118.865776 
	C149.895493,118.865776 149.764862,118.823746 150.308075,118.766472 
	C150.533737,118.495529 150.759399,118.224579 151.304672,117.414230 
	C152.004395,116.956741 152.704102,116.499252 153.922821,115.976303 
	C154.269928,115.624084 154.617035,115.271866 154.996765,114.990196 
	C154.996765,114.990196 154.929199,114.951767 155.588486,114.914719 
	C156.058762,114.279259 156.529037,113.643806 156.998932,112.999756 
	C156.998932,112.999756 157.006348,112.998184 157.781357,112.922394 
	C161.821777,112.464882 163.840195,110.423752 163.123657,105.657814 
	C163.152542,105.482132 163.181412,105.306458 163.687271,104.928902 
	C164.066772,104.590042 164.446274,104.251183 165.517456,103.962105 
	C165.947433,102.821465 166.377426,101.680832 166.824692,100.209129 
	C166.824692,100.209129 167.079208,99.996712 167.515701,99.744759 
	C167.637405,99.440643 167.759109,99.136528 167.904724,98.928146 
M156.706451,117.560936 
	C156.988876,117.291588 157.271301,117.022240 157.553726,116.752907 
	C157.442032,116.636093 157.239441,116.411545 157.231781,116.418007 
	C156.933945,116.669334 156.653900,116.941757 156.706451,117.560936 
M142.630539,125.474373 
	C142.841293,125.528412 143.052048,125.582443 143.262802,125.636482 
	C143.127518,125.503891 142.992218,125.371307 142.630539,125.474373 
M158.516129,120.416557 
	C158.516129,120.416557 158.578568,120.522820 158.516129,120.416557 
M155.483444,121.586662 
	C155.483444,121.586662 155.418228,121.476944 155.483444,121.586662 
z"/>
    <path fill="#9723C8" opacity="1.000000" stroke="none"
          d="
M70.009491,120.021568 
	C70.766457,119.994278 71.523430,119.966988 72.831779,120.337524 
	C81.385910,124.376724 89.381386,128.034439 97.414558,131.607407 
	C97.785301,131.772308 98.494034,131.177292 99.045341,130.936203 
	C106.056984,134.720398 109.523712,141.500046 113.328972,147.963135 
	C114.322594,149.650757 114.926865,151.567627 115.490936,153.988312 
	C115.575844,155.717407 115.879761,156.837387 116.183685,157.957382 
	C116.183685,157.957382 116.075462,157.956573 116.053741,158.359741 
	C116.302933,161.214584 116.682693,163.660217 116.818733,166.119354 
	C117.012489,169.621994 117.887993,173.408524 112.792870,176.572495 
	C112.327805,172.375961 111.953514,168.998520 111.579224,165.621063 
	C111.121628,165.884811 110.664032,166.148560 110.206429,166.412308 
	C109.104050,165.018433 107.850555,163.716995 106.930038,162.211899 
	C104.872986,158.848526 102.981934,155.383636 101.008659,151.588196 
	C99.665611,150.136566 98.337166,149.056870 96.900146,147.762085 
	C96.593895,147.278992 96.336945,147.092682 95.911064,146.770325 
	C95.601624,146.282104 95.342560,146.092712 94.913177,145.767395 
	C94.600937,145.281326 94.341301,145.092697 93.960823,144.639221 
	C91.608902,143.187042 89.319359,142.080170 86.953857,140.615692 
	C84.201897,139.069885 81.525902,137.881668 78.452217,136.516891 
	C80.096161,136.042023 81.181259,135.728592 82.266357,135.415161 
	C80.421814,134.369797 78.736786,134.336121 77.101089,134.603806 
	C75.048904,134.939636 73.037140,135.522522 71.005516,135.665253 
	C71.003281,134.887009 71.003464,134.442276 71.357506,133.960785 
	C73.182442,132.332382 74.653519,130.740768 76.124596,129.149139 
	C75.839119,128.765182 75.553635,128.381241 75.268158,127.997299 
	C72.513000,127.997299 69.757843,127.997299 67.068268,127.633141 
	C70.023476,125.619400 70.382851,122.965851 70.009491,120.021568 
z"/>
    <path fill="#5810AB" opacity="1.000000" stroke="none"
          d="
M24.184961,199.953903 
	C14.902114,186.230118 12.505177,171.517807 18.204256,155.468475 
	C18.811396,155.440765 18.974560,155.688248 19.043514,156.407684 
	C18.520121,163.976364 18.019754,171.120026 17.582106,177.368301 
	C23.455339,180.809143 28.510960,182.999588 31.222475,188.342850 
	C32.545506,190.949997 33.880951,194.689087 36.092270,195.493927 
	C42.742081,197.914246 46.368900,203.178238 49.932999,207.406967 
	C51.862080,206.748703 53.539211,206.176407 55.216343,205.604126 
	C55.386314,206.100876 55.556286,206.597626 55.726254,207.094376 
	C54.081188,208.515533 52.436119,209.936676 50.438103,211.662720 
	C55.586163,213.063095 59.962059,214.253433 64.337959,215.443771 
	C64.249985,215.922760 64.162010,216.401764 64.074036,216.880768 
	C62.050617,217.925903 60.027203,218.971039 57.596634,220.018448 
	C52.461605,219.023972 47.733730,218.027237 43.005852,217.030518 
	C43.005856,217.030502 42.538467,217.043213 42.538467,217.043213 
	C42.538467,217.043213 42.111889,216.851791 41.991146,216.280899 
	C35.975254,210.457977 30.080109,205.205933 24.184961,199.953903 
z"/>
    <path fill="#9920CA" opacity="1.000000" stroke="none"
          d="
M212.314560,132.905090 
	C212.846664,133.332504 213.378769,133.759918 214.076599,134.795364 
	C215.063538,137.002930 215.795334,138.656372 216.721970,140.192307 
	C220.114456,145.815430 223.571838,151.399429 227.027359,157.309113 
	C227.430038,158.060440 227.810135,158.500839 228.190231,158.941238 
	C228.190231,158.941238 228.087799,158.957764 228.060471,159.385773 
	C227.558670,165.382904 228.933075,171.194794 226.295486,176.653336 
	C224.447235,172.904984 226.504349,166.588531 219.021545,167.564804 
	C218.567123,164.588943 218.776154,161.624008 217.509094,159.569382 
	C215.802887,156.802658 216.078339,152.053192 211.105438,151.538696 
	C209.482864,149.173599 208.273178,146.625931 206.260513,145.271027 
	C201.707794,142.206161 196.758865,139.729889 192.228409,136.732986 
	C194.138916,136.115051 195.792099,135.778351 198.886627,135.148071 
	C196.987534,134.431824 196.471024,134.094177 195.933960,134.057434 
	C192.170425,133.799957 187.275894,135.037735 188.704559,128.235809 
	C188.772552,127.912132 187.498123,127.387848 186.972153,126.838852 
	C186.199188,126.032028 185.537445,125.118645 184.828308,124.250664 
	C185.053772,123.917397 185.279221,123.584129 185.504684,123.250862 
	C190.724396,124.120583 195.944122,124.990295 201.163834,125.860016 
	C201.163834,125.860023 201.063812,125.897102 201.208481,126.159210 
	C204.610214,128.249710 207.867279,130.078110 211.124344,131.906509 
	C211.124344,131.906509 211.063507,131.967514 211.179657,132.187775 
	C211.635391,132.573715 211.974976,132.739395 212.314560,132.905090 
z"/>
    <path fill="#5811AB" opacity="1.000000" stroke="none"
          d="
M135.868011,200.032211 
	C125.996376,185.136017 124.254662,169.321915 130.750793,152.775345 
	C130.664078,156.297562 130.339844,159.649002 129.868912,163.327789 
	C129.722198,168.487274 129.722198,173.319382 129.722198,176.244247 
	C132.877747,178.048233 135.105637,178.908676 136.806778,180.378708 
	C140.577988,183.637573 144.084824,187.202377 147.699463,190.642426 
	C148.080811,190.342636 148.462158,190.042847 148.843506,189.743057 
	C149.079941,192.961929 149.316376,196.180801 149.581268,199.786942 
	C151.746170,200.005966 153.983658,200.232346 156.304245,200.467133 
	C156.028793,208.127808 164.686249,207.589417 168.015640,212.550400 
	C166.248703,213.482254 164.818588,214.236465 163.388474,214.990677 
	C163.961441,214.614960 164.534409,214.239243 165.107376,213.863525 
	C166.397736,215.911667 167.688095,217.959824 168.588593,220.006744 
	C163.124954,218.674744 158.051163,217.343979 152.977371,216.013214 
	C152.977371,216.013214 152.997238,215.997375 152.957382,215.655273 
	C149.657425,211.984451 146.969131,207.875549 141.793594,207.160263 
	C141.793594,207.160263 141.940857,207.078125 141.933990,206.762146 
	C140.217255,204.680084 138.507385,202.914001 136.797501,201.147934 
	C136.797501,201.147934 136.888824,201.107788 136.823792,200.883240 
	C136.461838,200.449875 136.164932,200.241043 135.868011,200.032211 
z"/>
    <path fill="#9921CB" opacity="1.000000" stroke="none"
          d="
M151.998047,32.979500 
	C151.998047,32.979500 152.199921,33.198238 152.524857,33.472775 
	C153.237228,33.962368 153.624664,34.177425 154.012115,34.392479 
	C154.074875,34.637875 154.219315,34.817661 154.727051,35.299400 
	C156.320770,36.804806 157.632889,37.942642 158.944992,39.080479 
	C158.944992,39.080479 158.996353,39.017876 159.026428,39.288498 
	C159.356827,39.734608 159.657150,39.910099 159.957474,40.085590 
	C159.957474,40.085590 159.987350,40.007076 160.063873,40.343796 
	C161.341690,42.478218 162.542984,44.275921 163.555725,46.249908 
	C163.640488,46.923779 163.913773,47.421360 164.140488,47.925823 
	C164.093903,47.932705 164.127777,47.844822 164.086258,48.243820 
	C165.100143,50.044098 166.155563,51.445370 167.194427,52.899315 
	C167.177887,52.951981 167.148926,52.845428 167.104370,53.208012 
	C167.686264,54.383705 168.312698,55.196815 169.029785,56.306213 
	C169.109558,57.015388 169.098663,57.428284 169.056702,58.233841 
	C169.017273,59.415257 169.008911,60.204006 168.746170,61.194199 
	C168.998245,62.263424 169.504684,63.131203 170.061218,64.394592 
	C170.413193,67.192879 170.715042,69.595558 170.639633,71.998596 
	C169.508453,71.998970 168.754532,71.998993 168.000198,71.666000 
	C167.999039,70.888954 167.998306,70.444939 167.991943,69.608032 
	C166.742691,64.865570 165.499054,60.515987 164.255417,56.166409 
	C163.855850,56.052185 163.456299,55.937962 163.056732,55.823742 
	C162.462524,56.987175 161.223404,58.252892 161.388824,59.295853 
	C162.013916,63.237068 163.095016,67.105965 163.855469,71.344528 
	C162.799927,73.438347 161.894394,75.189575 160.982727,76.528473 
	C162.644058,67.218018 159.978470,59.555786 154.257248,52.799316 
	C148.668930,46.199780 141.293091,42.775383 133.058640,40.676468 
	C134.596359,39.960018 136.088226,39.567829 137.580109,39.175640 
	C137.698288,38.711823 137.816467,38.248005 137.934647,37.784187 
	C135.110092,36.966911 132.285553,36.149635 128.808884,35.143669 
	C129.542892,30.076736 123.052299,31.662792 119.410400,28.269218 
	C121.537460,27.692574 122.819740,27.023314 124.082352,27.058556 
	C129.433762,27.207926 134.779327,27.566551 140.115677,27.866482 
	C140.104324,27.884251 140.095566,27.855961 140.112717,28.214796 
	C142.082382,29.058018 144.034897,29.542406 146.247589,29.944565 
	C146.689362,29.851906 146.870972,29.841476 147.052567,29.831047 
	C147.518005,30.184355 147.983459,30.537659 148.808044,31.154255 
	C149.374756,31.685017 149.642899,31.778202 149.971603,31.697104 
	C149.971603,31.697104 150.305710,32.002605 150.656738,32.293709 
	C151.337860,32.716373 151.667953,32.847939 151.998047,32.979500 
z"/>
    <path fill="#5910AD" opacity="1.000000" stroke="none"
          d="
M96.903419,121.051262 
	C92.345428,117.614220 87.787437,114.177170 83.117928,110.041367 
	C82.468361,107.872589 82.072670,106.329803 81.365387,104.946297 
	C79.308258,100.922356 77.126350,96.962196 75.380768,92.983597 
	C77.176987,91.657837 78.585815,90.325493 79.997322,88.996574 
	C80.000000,89.000000 80.006920,89.005363 80.068520,89.355888 
	C82.661148,91.822624 85.161766,93.976952 87.739891,96.034126 
	C88.627243,96.742157 89.644135,97.498970 90.711586,97.733055 
	C95.006546,98.674973 97.207413,100.802094 95.288353,105.358467 
	C104.175087,107.090164 110.324158,110.643883 116.511795,117.649254 
	C116.971909,118.170181 116.851341,119.203995 117.000366,119.999695 
	C117.000000,120.000000 116.999390,120.000717 116.636787,120.005157 
	C114.520821,121.348457 112.767464,122.687302 110.639778,123.988159 
	C107.951202,123.059265 105.697372,121.902672 103.304283,121.358429 
	C101.253448,120.892029 99.043182,121.126663 96.903419,121.051262 
z"/>
    <path fill="#6E15B6" opacity="1.000000" stroke="none"
          d="
M19.066542,155.982651 
	C18.974560,155.688248 18.811396,155.440765 18.388882,155.117004 
	C21.866436,148.699097 25.532160,142.404373 29.797421,136.205490 
	C29.574045,138.058472 29.042770,140.053101 27.854303,141.512589 
	C26.373732,143.330795 26.125191,144.465469 28.194729,145.928543 
	C30.216759,147.358047 32.027512,149.086395 34.433811,151.105438 
	C34.751499,150.998901 36.010117,150.576843 36.257004,150.494049 
	C38.489323,153.026291 40.238873,155.010895 41.992996,157.443268 
	C42.737759,161.574738 43.477951,165.258484 44.157433,168.940491 
	C44.096725,168.938782 44.135082,168.823517 44.093136,169.206970 
	C44.379833,170.733658 44.708477,171.876907 45.146515,173.145569 
	C45.255905,173.270981 45.186672,173.596542 45.107670,173.992676 
	C42.084908,178.219131 40.187809,177.997910 38.044113,173.933472 
	C37.007462,171.968002 35.549038,170.059875 33.849468,168.644760 
	C30.669338,165.996887 27.064186,163.862457 23.853191,161.247528 
	C22.034565,159.766479 20.647810,157.755142 19.066542,155.982651 
z"/>
    <path fill="#6613B0" opacity="1.000000" stroke="none"
          d="
M130.015625,163.000443 
	C130.339844,159.649002 130.664078,156.297562 131.006668,152.521515 
	C133.257187,147.927689 135.489349,143.758469 138.089966,139.197723 
	C138.769104,138.609924 138.913818,138.328354 138.892578,137.961487 
	C138.892578,137.961487 138.974411,137.957413 139.187683,137.840866 
	C139.671204,137.541641 139.859222,137.296036 139.965012,136.987488 
	C139.965012,136.987488 139.990555,137.007660 140.312866,136.978592 
	C141.050476,136.834991 141.465775,136.720444 141.893585,136.959686 
	C141.266968,138.540161 140.627808,139.766846 139.685303,141.153503 
	C138.357849,142.995331 137.275055,144.644669 136.321182,146.365448 
	C133.965195,150.615601 136.386581,158.123138 140.971634,159.917389 
	C145.214874,161.577866 147.429123,164.227844 147.054474,168.873306 
	C147.010605,169.417328 147.396347,169.996002 147.724319,170.984940 
	C148.726654,169.835403 149.389725,169.074951 150.216843,168.126373 
	C152.087341,171.115784 151.934662,175.736572 156.996460,175.382248 
	C157.355408,178.517990 157.694824,181.238159 157.788864,184.138000 
	C157.176102,184.929230 156.808701,185.540833 156.595047,185.896515 
	C155.515228,184.234558 154.766220,182.360107 153.421692,181.144180 
	C148.922699,177.075546 144.310669,173.115356 139.544037,169.365189 
	C136.551224,167.010574 133.203903,165.106598 130.015625,163.000443 
z"/>
    <path fill="#9022C3" opacity="1.000000" stroke="none"
          d="
M200.978729,125.552101 
	C195.944122,124.990295 190.724396,124.120583 185.504684,123.250862 
	C185.279221,123.584129 185.053772,123.917397 184.828308,124.250664 
	C185.537445,125.118645 186.199188,126.032028 186.972153,126.838852 
	C187.498123,127.387848 188.772552,127.912132 188.704559,128.235809 
	C187.275894,135.037735 192.170425,133.799957 195.933960,134.057434 
	C196.471024,134.094177 196.987534,134.431824 198.886627,135.148071 
	C195.792099,135.778351 194.138916,136.115051 191.809586,136.718292 
	C186.094131,136.657394 181.054840,136.329956 175.957382,135.656799 
	C174.268005,133.205765 172.636780,131.100449 171.239410,128.800812 
	C170.651337,128.072723 169.829407,127.538956 168.650757,126.967514 
	C167.261078,126.217979 166.228119,125.506119 165.195160,124.794266 
	C165.798401,124.193649 166.401642,123.593025 167.414520,122.945038 
	C170.277969,122.597710 172.771576,122.473259 175.170166,121.929611 
	C176.531494,121.621063 177.737213,120.625862 179.013000,119.939896 
	C186.858612,119.304184 194.077835,121.240524 200.978729,125.552101 
z"/>
    <path fill="#831CBF" opacity="1.000000" stroke="none"
          d="
M167.004883,122.992401 
	C166.401642,123.593025 165.798401,124.193649 165.195160,124.794266 
	C166.228119,125.506119 167.261078,126.217979 168.690475,127.287674 
	C169.726471,128.095383 170.366013,128.545273 171.005569,128.995148 
	C172.636780,131.100449 174.268005,133.205765 175.786530,135.900574 
	C175.117310,136.660461 174.560791,136.830841 173.590805,136.999481 
	C170.448395,137.999466 167.719467,139.001160 164.620010,140.002762 
	C162.498642,140.669403 160.747803,141.336166 158.664536,142.000793 
	C157.888931,142.000443 157.445724,142.002228 157.005951,141.633484 
	C159.445190,134.092224 151.723618,137.186798 150.289703,134.836258 
	C150.826630,132.154373 151.269608,129.941757 151.752151,127.740135 
	C151.791718,127.751137 151.825836,127.825844 152.199615,127.852753 
	C154.041733,126.910706 155.510071,125.941757 157.029755,124.753204 
	C157.081085,124.533600 157.238632,124.110977 157.238632,124.110977 
	C160.226013,123.081604 163.213409,122.052231 166.598907,121.390518 
	C166.999649,122.169586 167.002274,122.580994 167.004883,122.992401 
z"/>
    <path fill="#7818BA" opacity="1.000000" stroke="none"
          d="
M41.988426,156.995514 
	C40.238873,155.010895 38.489323,153.026291 36.257004,150.494049 
	C36.010117,150.576843 34.751499,150.998901 34.433811,151.105438 
	C32.027512,149.086395 30.216759,147.358047 28.194729,145.928543 
	C26.125191,144.465469 26.373732,143.330795 27.854303,141.512589 
	C29.042770,140.053101 29.574045,138.058472 30.117180,136.098785 
	C30.990631,134.604279 32.143856,133.312302 33.780273,132.263992 
	C36.303085,134.153275 38.342701,135.798904 40.182190,137.283066 
	C41.866261,136.878830 43.555298,136.473404 45.244335,136.067978 
	C43.610455,139.122772 39.689579,141.113693 44.291267,144.461212 
	C45.779823,143.163055 47.034939,141.829468 48.538864,140.897308 
	C49.012226,140.603928 50.153133,141.387543 50.719124,141.916534 
	C48.308407,145.439499 46.167072,148.724167 44.000046,151.689026 
	C43.838318,150.881302 43.702282,150.393372 43.566246,149.905457 
	C43.395813,149.943039 43.225380,149.980637 43.054947,150.018234 
	C43.054947,151.725113 43.054947,153.431992 43.039227,155.367828 
	C43.023506,155.596786 42.860157,156.025726 42.663986,156.135895 
	C42.231834,156.447159 42.072037,156.696960 41.988426,156.995514 
z"/>
    <path fill="#9423C5" opacity="1.000000" stroke="none"
          d="
M140.127029,27.848713 
	C134.779327,27.566551 129.433762,27.207926 124.082352,27.058556 
	C122.819740,27.023314 121.537460,27.692574 119.410400,28.269218 
	C123.052299,31.662792 129.542892,30.076736 128.808884,35.143669 
	C132.285553,36.149635 135.110092,36.966911 137.934647,37.784187 
	C137.816467,38.248005 137.698288,38.711823 137.580109,39.175640 
	C136.088226,39.567829 134.596359,39.960018 132.637695,40.681709 
	C129.786530,40.681931 127.402138,40.352654 124.973740,39.666245 
	C124.725677,38.867195 124.627625,38.149654 124.301796,38.024338 
	C118.596024,35.829792 114.768242,29.985155 107.989410,29.734230 
	C106.960564,29.696148 105.994247,27.968727 104.999008,27.022694 
	C116.109650,21.275194 127.413071,22.860050 139.260284,26.434467 
	C139.882095,27.105488 140.004562,27.477100 140.127029,27.848713 
z"/>
    <path fill="#8B1EC2" opacity="1.000000" stroke="none"
          d="
M219.027527,167.981201 
	C226.504349,166.588531 224.447235,172.904984 226.295486,176.653336 
	C228.933075,171.194794 227.558670,165.382904 228.068909,159.334595 
	C231.167114,168.435196 231.417023,177.941895 226.820435,187.711487 
	C224.351517,190.777466 222.426575,193.468735 220.501617,196.160004 
	C219.916733,192.310318 220.225449,188.763947 214.965912,190.697632 
	C214.628510,189.929138 214.308121,189.459244 214.029114,188.629974 
	C217.566895,181.957977 219.877884,175.355774 219.027527,167.981201 
M218.434937,187.705231 
	C218.706268,187.989731 218.977600,188.274231 219.248947,188.558731 
	C219.366592,188.446091 219.592804,188.241867 219.586227,188.234055 
	C219.333099,187.934006 219.058670,187.651932 218.434937,187.705231 
z"/>
    <path fill="#7018B6" opacity="1.000000" stroke="none"
          d="
M147.838272,119.929535 
	C147.506439,119.885696 147.194458,119.945473 146.238861,120.080780 
	C144.730484,120.028503 143.885559,120.004295 143.017822,119.602737 
	C141.734833,118.157578 140.630753,116.727341 139.179825,116.102379 
	C136.667633,115.020279 133.295715,114.938675 135.081100,110.707062 
	C134.221420,110.382851 133.361755,110.058640 132.391022,109.692543 
	C135.142441,107.898582 136.583649,106.958900 138.161194,105.958542 
	C138.191864,105.923531 138.086212,105.949211 137.516586,105.852280 
	C136.750275,105.625122 136.447906,105.520569 136.367737,105.182678 
	C137.365860,104.622826 138.141815,104.296310 139.296631,103.984390 
	C141.110870,103.644821 142.546219,103.290665 144.045898,103.299667 
	C150.127335,103.005028 153.268066,107.312363 156.780289,110.987526 
	C156.873352,111.084900 157.096725,111.057747 157.185883,111.402916 
	C157.077087,112.144173 157.041718,112.571182 157.006348,112.998184 
	C157.006348,112.998184 156.998932,112.999756 156.718674,113.105171 
	C155.935333,113.790977 155.432266,114.371368 154.929199,114.951767 
	C154.929199,114.951767 154.996765,114.990196 154.721619,115.001450 
	C154.098907,115.355721 153.751358,115.698730 153.403809,116.041748 
	C152.704102,116.499252 152.004395,116.956741 150.879120,117.729347 
	C150.223999,118.304222 149.994431,118.563980 149.764862,118.823746 
	C149.764862,118.823746 149.895493,118.865776 149.574646,118.823509 
	C148.781967,119.164001 148.310120,119.546768 147.838272,119.929535 
z"/>
    <path fill="#7818B9" opacity="1.000000" stroke="none"
          d="
M151.712585,127.729126 
	C151.269608,129.941757 150.826630,132.154373 150.289703,134.836258 
	C151.723618,137.186798 159.445190,134.092224 156.981873,141.949158 
	C157.632141,143.757782 158.309875,144.880219 159.007324,146.255615 
	C158.769104,146.705780 158.511169,146.902954 157.914703,147.202362 
	C157.043793,148.533981 156.511429,149.763397 155.682495,151.034042 
	C155.018845,152.287643 154.651749,153.500000 153.872925,156.072128 
	C152.268417,152.854858 151.224487,150.761627 150.180557,148.668381 
	C149.939438,148.956558 149.698318,149.244720 149.457199,149.532898 
	C146.301010,146.686432 143.144836,143.839981 139.988647,140.993530 
	C140.627808,139.766846 141.266968,138.540161 141.967499,136.679169 
	C142.356674,135.369446 142.684464,134.694046 143.012238,134.018646 
	C143.012238,134.018646 143.000610,134.000610 143.341400,133.962646 
	C144.443878,132.949860 145.205582,131.975037 145.967285,131.000198 
	C146.248886,130.830399 146.530487,130.660599 147.196686,130.186905 
	C147.877701,129.643707 148.174133,129.404404 148.470566,129.165100 
	C148.470566,129.165100 148.827988,129.083527 149.143707,128.894867 
	C149.710800,128.523438 149.870743,128.280472 149.939240,127.977295 
	C149.939240,127.977295 149.988388,128.006805 150.276627,127.957794 
	C150.947433,127.848892 151.330017,127.789009 151.712585,127.729126 
z"/>
    <path fill="#821CBE" opacity="1.000000" stroke="none"
          d="
M117.407440,179.061325 
	C116.889069,186.650772 114.623116,193.648514 109.691666,200.090546 
	C108.678482,200.468292 108.305107,200.715897 107.701401,200.972931 
	C107.471069,200.982391 107.010071,200.989090 106.998566,200.619446 
	C104.036644,195.823593 100.625725,194.856766 97.619545,197.451843 
	C96.249031,196.556000 94.919678,195.687042 93.651245,194.503143 
	C94.100700,193.716751 94.489235,193.245331 95.062729,193.049683 
	C98.838097,192.950134 99.712082,190.737701 99.206894,187.427094 
	C99.263199,187.299713 99.463127,187.105728 99.789017,187.349640 
	C102.085007,184.392273 104.055115,181.190979 106.375687,178.056732 
	C108.824005,180.901871 110.921844,183.679962 113.479271,187.066666 
	C115.210991,183.537537 116.309212,181.299438 117.407440,179.061325 
z"/>
    <path fill="#6E16B6" opacity="1.000000" stroke="none"
          d="
M101.206879,209.208099 
	C98.551468,211.495193 95.896065,213.782288 92.475548,216.056549 
	C88.811432,216.705902 85.912422,217.368073 83.038231,217.684891 
	C82.906654,216.033966 82.757881,213.588455 82.592781,213.587341 
	C76.346756,213.545639 78.953453,210.335892 80.712723,207.717987 
	C79.369766,207.138992 78.392830,206.717804 77.641418,206.393860 
	C78.505814,204.962631 79.198776,203.815247 80.036697,202.399048 
	C80.953499,202.054138 81.725342,201.978027 82.916473,201.924713 
	C83.893219,201.973068 84.450699,201.998627 85.019104,202.419571 
	C86.071144,203.526016 87.414551,205.065521 88.104309,204.813828 
	C92.607399,203.170593 96.061508,204.023804 98.747330,208.092529 
	C99.102257,208.630188 100.205986,208.673553 101.022827,209.012421 
	C101.082741,209.079010 101.206886,209.208115 101.206879,209.208099 
M82.482750,208.587646 
	C82.482750,208.587646 82.416458,208.476242 82.482750,208.587646 
z"/>
    <path fill="#8D23BF" opacity="1.000000" stroke="none"
          d="
M117.756401,178.888626 
	C116.309212,181.299438 115.210991,183.537537 113.479271,187.066666 
	C110.921844,183.679962 108.824005,180.901871 106.397507,177.733704 
	C105.791061,176.230225 105.513275,175.116806 105.182228,173.610931 
	C106.522942,165.647919 103.596771,159.070709 100.540314,152.410736 
	C100.701660,152.260925 101.023262,151.960098 101.023262,151.960098 
	C102.981934,155.383636 104.872986,158.848526 106.930038,162.211899 
	C107.850555,163.716995 109.104050,165.018433 110.206429,166.412308 
	C110.664032,166.148560 111.121628,165.884811 111.579224,165.621063 
	C111.953514,168.998520 112.327805,172.375961 112.792870,176.572495 
	C117.887993,173.408524 117.012489,169.621994 116.818733,166.119354 
	C116.682693,163.660217 116.302933,161.214584 116.067413,158.307373 
	C119.064796,164.586319 119.776726,171.536743 117.756401,178.888626 
z"/>
    <path fill="#821EBA" opacity="1.000000" stroke="none"
          d="
M50.988506,141.678223 
	C50.153133,141.387543 49.012226,140.603928 48.538864,140.897308 
	C47.034939,141.829468 45.779823,143.163055 44.291267,144.461212 
	C39.689579,141.113693 43.610455,139.122772 45.244335,136.067978 
	C43.555298,136.473404 41.866261,136.878830 40.182190,137.283066 
	C38.342701,135.798904 36.303085,134.153275 34.099388,132.185852 
	C40.334675,126.183403 47.705536,122.471924 56.832733,120.985161 
	C57.771767,121.245750 58.035603,121.412277 58.246353,121.630150 
	C58.308811,121.694710 58.264870,122.003052 58.197056,122.032516 
	C55.132618,123.363907 52.060081,124.676651 48.610374,126.000237 
	C44.866787,126.933182 41.244820,127.602577 41.306545,130.905212 
	C44.496220,131.762527 46.779812,132.422089 49.089252,132.973389 
	C49.953232,133.179626 50.908237,133.315643 51.768631,133.169968 
	C54.875038,132.644043 56.115376,134.037216 56.004448,137.359283 
	C56.028206,138.199829 56.048428,138.679886 55.928223,139.473938 
	C54.188030,140.418045 52.588268,141.048141 50.988506,141.678223 
z"/>
    <path fill="#8C1BC4" opacity="1.000000" stroke="none"
          d="
M104.631271,26.985510 
	C105.994247,27.968727 106.960564,29.696148 107.989410,29.734230 
	C114.768242,29.985155 118.596024,35.829792 124.301796,38.024338 
	C124.627625,38.149654 124.725677,38.867195 124.602303,39.668648 
	C122.843948,40.512955 121.413017,40.997723 119.620789,41.591087 
	C118.509605,41.728294 117.759735,41.756897 116.789673,41.554207 
	C113.071091,41.897038 109.572693,42.471169 106.060150,42.686653 
	C106.547180,41.043629 107.048363,39.759243 107.734581,38.000648 
	C104.169540,35.997166 100.571548,33.975163 97.173538,31.683947 
	C97.880310,30.512850 98.387085,29.610970 98.893860,28.709091 
	C100.683754,28.122168 102.473648,27.535246 104.631271,26.985510 
z"/>
    <path fill="#632E9A" opacity="1.000000" stroke="none"
          d="
M74.993378,92.977020 
	C77.126350,96.962196 79.308258,100.922356 81.365387,104.946297 
	C82.072670,106.329803 82.468361,107.872589 82.988091,109.737289 
	C65.747894,91.923546 64.885300,64.354156 81.386116,42.298347 
	C82.285400,42.038975 82.653572,42.022923 82.984818,42.360207 
	C81.273918,45.791233 79.599953,48.868923 77.574013,52.019455 
	C72.177094,60.058022 70.990707,68.803955 71.981659,78.421715 
	C72.983109,83.560707 73.988243,88.268860 74.993378,92.977020 
z"/>
    <path fill="#632C99" opacity="1.000000" stroke="none"
          d="
M153.183899,216.287811 
	C158.051163,217.343979 163.124954,218.674744 168.598068,220.006119 
	C168.997391,220.006729 169.004059,220.019272 169.251358,220.299866 
	C171.004684,220.722275 172.510712,220.864075 174.479706,221.009903 
	C181.462769,221.002106 188.078842,221.608780 194.438065,218.037842 
	C198.234985,216.356384 201.642197,214.686142 205.356415,212.877136 
	C207.775818,211.492538 209.888229,210.246689 212.179352,209.172546 
	C212.358063,209.344238 212.755737,209.640076 212.755737,209.640076 
	C199.147980,223.873718 175.119736,227.384537 155.560150,217.766525 
	C154.818802,217.401978 154.112854,216.965424 153.183899,216.287811 
z"/>
    <path fill="#8221B9" opacity="1.000000" stroke="none"
          d="
M214.982910,190.996246 
	C220.225449,188.763947 219.916733,192.310318 220.501617,196.160004 
	C222.426575,193.468735 224.351517,190.777466 226.636078,188.045410 
	C225.286804,191.978394 223.577927,195.952179 221.225220,200.086121 
	C219.423828,200.876999 218.266251,201.507721 216.870209,201.845551 
	C213.743256,199.348602 210.854797,197.144577 207.976227,194.708496 
	C207.986115,194.476440 208.002869,194.012207 208.346924,193.956390 
	C210.788300,192.932449 212.885605,191.964355 214.982910,190.996246 
z"/>
    <path fill="#9122C3" opacity="1.000000" stroke="none"
          d="
M48.988499,125.991592 
	C52.060081,124.676651 55.132618,123.363907 58.197056,122.032516 
	C58.264870,122.003052 58.308811,121.694710 58.246353,121.630150 
	C58.035603,121.412277 57.771767,121.245750 57.229748,121.010117 
	C60.989807,120.575912 65.048347,120.191200 69.558189,119.914024 
	C70.382851,122.965851 70.023476,125.619400 67.066925,127.634491 
	C67.000000,128.000000 66.997299,128.002533 66.699997,128.022308 
	C65.933693,128.359467 65.464684,128.676834 64.633224,128.991409 
	C59.176693,127.989616 54.082596,126.990608 48.988499,125.991592 
z"/>
    <path fill="#602C97" opacity="1.000000" stroke="none"
          d="
M83.013420,218.030243 
	C85.912422,217.368073 88.811432,216.705902 92.150558,216.084442 
	C76.476860,225.601013 60.086075,225.315125 43.244019,217.274521 
	C47.733730,218.027237 52.461605,219.023972 58.018089,220.033386 
	C67.097717,221.717209 75.214493,221.779022 83.013420,218.030243 
z"/>
    <path fill="#623399" opacity="1.000000" stroke="none"
          d="
M97.076744,121.372070 
	C99.043182,121.126663 101.253448,120.892029 103.304283,121.358429 
	C105.697372,121.902672 107.951202,123.059265 111.020744,124.154503 
	C118.183647,124.569122 124.591270,124.779411 130.997131,125.195755 
	C130.995377,125.401817 130.985779,125.813843 130.985779,125.813843 
	C119.274734,128.253433 107.964455,127.412277 97.076744,121.372070 
z"/>
    <path fill="#F7EBF9" opacity="1.000000" stroke="none"
          d="
M169.087769,57.841171 
	C169.098663,57.428284 169.109558,57.015388 169.021927,55.983997 
	C168.331909,54.525475 167.740417,53.685452 167.148926,52.845428 
	C167.148926,52.845428 167.177887,52.951981 167.196747,52.555046 
	C166.186340,50.720345 165.157059,49.282581 164.127777,47.844822 
	C164.127777,47.844822 164.093903,47.932705 164.101898,47.608860 
	C163.988037,46.881218 163.866150,46.477421 163.744263,46.073624 
	C162.542984,44.275921 161.341690,42.478218 160.030502,40.369289 
	C162.503082,39.736816 164.619827,39.902317 165.791214,42.956161 
	C166.221970,44.079178 168.250168,44.589455 168.365799,44.659725 
	C169.708466,50.953739 170.889389,56.489471 172.047592,62.492958 
	C172.024887,62.960712 171.901382,63.074268 171.634109,62.858742 
	C170.607147,61.042534 169.847458,59.441853 169.087769,57.841171 
z"/>
    <path fill="#F7EBF9" opacity="1.000000" stroke="none"
          d="
M172.082809,62.900040 
	C173.068771,63.554573 174.782715,64.248093 174.803146,64.988335 
	C175.004547,72.288391 174.924850,79.596199 174.924850,87.846062 
	C174.153473,86.340523 173.798645,85.648010 173.840302,85.729301 
	C172.491653,89.143814 170.984467,92.959709 169.144287,96.378708 
	C169.597260,93.337456 170.383224,90.693108 171.395538,87.864716 
	C171.656860,87.109970 171.691833,86.539276 171.870041,85.570282 
	C171.975998,77.806084 171.938690,70.440178 171.901382,63.074268 
	C171.901382,63.074268 172.024887,62.960712 172.082809,62.900040 
z"/>
    <path fill="#9022C3" opacity="1.000000" stroke="none"
          d="
M227.004761,156.998169 
	C223.571838,151.399429 220.114456,145.815430 216.721970,140.192307 
	C215.795334,138.656372 215.063538,137.002930 214.162262,135.042999 
	C222.030502,139.732803 225.490219,147.726624 227.873657,156.604736 
	C227.365906,156.997925 227.185333,156.998047 227.004761,156.998169 
z"/>
    <path fill="#572895" opacity="1.000000" stroke="none"
          d="
M24.278107,200.273727 
	C30.080109,205.205933 35.975254,210.457977 41.857010,216.089417 
	C34.612381,212.725739 28.909948,207.300049 24.278107,200.273727 
z"/>
    <path fill="#9122C3" opacity="1.000000" stroke="none"
          d="
M98.922562,130.609253 
	C98.494034,131.177292 97.785301,131.772308 97.414558,131.607407 
	C89.381386,128.034439 81.385910,124.376724 73.201035,120.431084 
	C82.593979,121.020447 91.088303,124.657715 98.922562,130.609253 
z"/>
    <path fill="#7D37A9" opacity="1.000000" stroke="none"
          d="
M83.021751,42.006874 
	C82.653572,42.022923 82.285400,42.038975 81.640579,42.060040 
	C86.968178,37.658783 92.572426,33.252518 98.535263,28.777668 
	C98.387085,29.610970 97.880310,30.512850 96.829437,31.732307 
	C93.504616,34.347637 90.723892,36.645397 87.642914,39.090813 
	C85.902351,40.161270 84.462051,41.084072 83.021751,42.006874 
z"/>
    <path fill="#8234AB" opacity="1.000000" stroke="none"
          d="
M171.169205,88.048752 
	C170.383224,90.693108 169.597260,93.337456 168.765228,96.347900 
	C168.719193,96.713982 168.741028,96.776886 168.516281,96.976379 
	C168.129974,97.755676 167.968430,98.335480 167.806885,98.915276 
	C167.806885,98.915276 167.904724,98.928146 167.658722,98.989594 
	C167.301559,99.366264 167.190384,99.681488 167.079208,99.996712 
	C167.079208,99.996712 166.824692,100.209129 166.558868,100.591660 
	C165.803970,101.953568 165.314865,102.932945 164.825775,103.912323 
	C164.446274,104.251183 164.066772,104.590042 163.339096,105.003647 
	C162.990921,105.078400 162.794830,104.966148 162.864090,104.577255 
	C162.966599,103.140015 162.999847,102.091682 163.301544,100.836075 
	C165.353271,97.301743 167.087387,93.946785 168.949951,90.664734 
	C169.504471,89.687614 170.419418,88.915047 171.169205,88.048752 
z"/>
    <path fill="#632C99" opacity="1.000000" stroke="none"
          d="
M141.903091,207.476120 
	C146.969131,207.875549 149.657425,211.984451 152.954025,215.666748 
	C149.331207,213.277542 145.671890,210.534760 141.903091,207.476120 
z"/>
    <path fill="#652AA0" opacity="1.000000" stroke="none"
          d="
M131.393463,125.834320 
	C130.985779,125.813843 130.995377,125.401817 131.223328,124.929779 
	C134.859512,123.344566 137.707550,119.994568 141.930466,121.926315 
	C142.001389,122.001686 142.143036,122.152626 142.079010,122.352737 
	C142.014984,122.552849 141.893768,122.955200 141.893768,122.955200 
	C138.529556,123.921730 135.165344,124.888268 131.393463,125.834320 
z"/>
    <path fill="#632C99" opacity="1.000000" stroke="none"
          d="
M217.108704,202.138458 
	C218.266251,201.507721 219.423828,200.876999 220.901154,200.180084 
	C218.579620,203.171555 215.938324,206.229172 213.026382,209.463440 
	C212.755737,209.640076 212.358063,209.344238 212.336426,208.869965 
	C213.912750,206.309952 215.510727,204.224213 217.108704,202.138458 
z"/>
    <path fill="#8C25BE" opacity="1.000000" stroke="none"
          d="
M167.414520,122.945038 
	C167.002274,122.580994 166.999649,122.169586 166.992157,121.449562 
	C170.696426,120.687706 174.405579,120.234467 178.563873,119.860565 
	C177.737213,120.625862 176.531494,121.621063 175.170166,121.929611 
	C172.771576,122.473259 170.277969,122.597710 167.414520,122.945038 
z"/>
    <path fill="#9022C3" opacity="1.000000" stroke="none"
          d="
M211.059311,131.568298 
	C207.867279,130.078110 204.610214,128.249710 201.211639,126.105972 
	C204.378174,127.603783 207.686234,129.416931 211.059311,131.568298 
z"/>
    <path fill="#F7EBF9" opacity="1.000000" stroke="none"
          d="
M157.393860,112.960289 
	C157.041718,112.571182 157.077087,112.144173 157.393860,111.372131 
	C157.977341,110.913063 158.126938,110.694626 158.418930,110.215942 
	C160.161194,108.769287 161.608566,107.478447 163.055954,106.187614 
	C163.840195,110.423752 161.821777,112.464882 157.393860,112.960289 
z"/>
    <path fill="#F7EBF9" opacity="1.000000" stroke="none"
          d="
M151.752151,127.740128 
	C151.330017,127.789009 150.947433,127.848892 150.274567,127.929207 
	C150.545563,126.437630 151.106888,124.925621 151.857880,122.902649 
	C153.397522,123.256615 154.924225,123.607605 156.844772,124.034782 
	C157.238632,124.110977 157.081085,124.533600 156.684311,124.766113 
	C154.800308,125.941032 153.313065,126.883438 151.825836,127.825844 
	C151.825836,127.825844 151.791718,127.751137 151.752151,127.740128 
z"/>
    <path fill="#632C99" opacity="1.000000" stroke="none"
          d="
M136.877014,201.478653 
	C138.507385,202.914001 140.217255,204.680084 141.879211,206.826233 
	C140.206375,205.407333 138.581451,203.608353 136.877014,201.478653 
z"/>
    <path fill="#7018B6" opacity="1.000000" stroke="none"
          d="
M163.089813,105.922714 
	C161.608566,107.478447 160.161194,108.769287 158.402176,109.831581 
	C159.658646,108.057411 161.226730,106.511780 162.794830,104.966148 
	C162.794830,104.966148 162.990921,105.078400 163.100601,105.104591 
	C163.181412,105.306458 163.152542,105.482132 163.089813,105.922714 
z"/>
    <path fill="#F7EBF9" opacity="1.000000" stroke="none"
          d="
M140.115677,27.866482 
	C140.004562,27.477100 139.882095,27.105488 139.632126,26.466930 
	C141.967117,27.184261 144.429626,28.168535 146.972351,29.491928 
	C146.870972,29.841476 146.689362,29.851906 145.940247,29.767078 
	C143.613678,29.066534 141.854614,28.461246 140.095566,27.855961 
	C140.095566,27.855961 140.104324,27.884251 140.115677,27.866482 
z"/>
    <path fill="#F7EBF9" opacity="1.000000" stroke="none"
          d="
M158.937286,38.723133 
	C157.632889,37.942642 156.320770,36.804806 154.895081,35.353706 
	C156.164200,36.148891 157.546875,37.257339 158.937286,38.723133 
z"/>
    <path fill="#F7EBF9" opacity="1.000000" stroke="none"
          d="
M145.626984,131.023453 
	C145.205582,131.975037 144.443878,132.949860 143.350464,133.968567 
	C143.774704,133.023880 144.530685,132.035294 145.626984,131.023453 
z"/>
    <path fill="#F7EBF9" opacity="1.000000" stroke="none"
          d="
M142.670837,134.037872 
	C142.684464,134.694046 142.356674,135.369446 141.954987,136.325378 
	C141.465775,136.720444 141.050476,136.834991 140.312485,136.962555 
	C140.769653,136.002747 141.549530,135.029922 142.670837,134.037872 
z"/>
    <path fill="#8D23BF" opacity="1.000000" stroke="none"
          d="
M116.200485,157.664490 
	C115.879761,156.837387 115.575844,155.717407 115.476013,154.346802 
	C115.859169,155.188004 116.038223,156.279800 116.200485,157.664490 
z"/>
    <path fill="#F7EBF9" opacity="1.000000" stroke="none"
          d="
M165.171616,103.937210 
	C165.314865,102.932945 165.803970,101.953568 166.550232,100.757195 
	C166.377426,101.680832 165.947433,102.821465 165.171616,103.937210 
z"/>
    <path fill="#652AA0" opacity="1.000000" stroke="none"
          d="
M143.040649,119.980087 
	C143.885559,120.004295 144.730484,120.028503 145.998230,120.101608 
	C146.092896,120.419754 145.764725,120.688988 144.982880,121.162231 
	C144.214111,121.451561 144.029465,121.655182 143.975266,121.977112 
	C143.975266,121.977112 143.998871,122.000847 143.680756,121.981613 
	C142.956100,122.025787 142.549561,122.089203 142.143036,122.152626 
	C142.143036,122.152626 142.001389,122.001686 142.004288,121.648102 
	C142.351685,120.856377 142.696167,120.418236 143.040649,119.980087 
z"/>
    <path fill="#6E16B6" opacity="1.000000" stroke="none"
          d="
M104.242043,206.246170 
	C103.805794,206.899857 103.369553,207.553528 102.524231,208.161667 
	C102.115158,208.116119 101.963242,207.970718 102.016029,207.655365 
	C102.701485,206.879059 103.334152,206.418121 104.035172,206.029846 
	C104.103516,206.102539 104.242043,206.246170 104.242043,206.246170 
z"/>
    <path fill="#F7EBF9" opacity="1.000000" stroke="none"
          d="
M156.538971,117.386169 
	C156.653900,116.941757 156.933945,116.669334 157.231781,116.418007 
	C157.239441,116.411545 157.442032,116.636093 157.553726,116.752899 
	C157.271301,117.022240 156.988876,117.291588 156.538971,117.386169 
z"/>
    <path fill="#F7EBF9" opacity="1.000000" stroke="none"
          d="
M155.258850,114.933243 
	C155.432266,114.371368 155.935333,113.790977 156.718872,113.109467 
	C156.529037,113.643806 156.058762,114.279259 155.258850,114.933243 
z"/>
    <path fill="#F7EBF9" opacity="1.000000" stroke="none"
          d="
M142.743729,125.356552 
	C142.992218,125.371307 143.127518,125.503891 143.262802,125.636482 
	C143.052048,125.582443 142.841293,125.528412 142.743729,125.356552 
z"/>
    <path fill="#F7EBF9" opacity="1.000000" stroke="none"
          d="
M153.663315,116.009018 
	C153.751358,115.698730 154.098907,115.355721 154.705292,114.966171 
	C154.617035,115.271866 154.269928,115.624084 153.663315,116.009018 
z"/>
    <path fill="#F7EBF9" opacity="1.000000" stroke="none"
          d="
M142.079010,122.352737 
	C142.549561,122.089203 142.956100,122.025787 143.672424,121.967827 
	C143.495667,122.307442 143.009140,122.641602 142.208191,122.965477 
	C141.893768,122.955200 142.014984,122.552849 142.079010,122.352737 
z"/>
    <path fill="#F7EBF9" opacity="1.000000" stroke="none"
          d="
M148.170746,119.938919 
	C148.310120,119.546768 148.781967,119.164001 149.561340,118.756195 
	C149.413635,119.136871 148.958420,119.542587 148.170746,119.938919 
z"/>
    <path fill="#7919B7" opacity="1.000000" stroke="none"
          d="
M107.931725,200.963486 
	C108.305107,200.715897 108.678482,200.468292 109.399742,200.230042 
	C109.419006,200.833908 109.090385,201.428406 108.400345,201.851105 
	C108.003189,201.440704 107.967453,201.202087 107.931725,200.963486 
z"/>
    <path fill="#6E16B6" opacity="1.000000" stroke="none"
          d="
M107.701401,200.972931 
	C107.967453,201.202087 108.003189,201.440704 108.106644,202.036133 
	C108.111801,202.727432 107.917061,202.942032 107.319382,203.044159 
	C107.048584,203.051559 106.943428,202.959900 106.961258,202.631683 
	C106.989418,201.865356 106.999748,201.427216 107.010071,200.989090 
	C107.010071,200.989090 107.471069,200.982391 107.701401,200.972931 
z"/>
    <path fill="#F7EBF9" opacity="1.000000" stroke="none"
          d="
M168.104736,98.779800 
	C167.968430,98.335480 168.129974,97.755676 168.540405,96.999344 
	C168.660370,97.429970 168.531494,98.037148 168.104736,98.779800 
z"/>
    <path fill="#8B1EC2" opacity="1.000000" stroke="none"
          d="
M227.027359,157.309113 
	C227.185333,156.998047 227.365906,156.997925 227.817429,156.996567 
	C228.120071,157.425537 228.151764,157.855728 228.186844,158.613586 
	C227.810135,158.500839 227.430038,158.060440 227.027359,157.309113 
z"/>
    <path fill="#6E16B6" opacity="1.000000" stroke="none"
          d="
M102.190414,208.189545 
	C102.082489,208.541046 101.899300,208.819107 101.461502,209.152649 
	C101.206886,209.208115 101.082741,209.079010 101.139114,208.803253 
	C101.397820,208.268036 101.653740,208.082443 101.963242,207.970718 
	C101.963242,207.970718 102.115158,208.116119 102.190414,208.189545 
z"/>
    <path fill="#6E16B6" opacity="1.000000" stroke="none"
          d="
M106.189529,204.187119 
	C106.028816,204.476715 105.868103,204.766327 105.401627,205.075653 
	C105.095856,205.095398 104.966835,204.966415 105.082565,204.753510 
	C105.399025,204.275284 105.655006,204.083771 106.022171,204.021210 
	C106.078117,204.076355 106.189529,204.187119 106.189529,204.187119 
z"/>
    <path fill="#F7EBF9" opacity="1.000000" stroke="none"
          d="
M153.875610,34.065540 
	C153.624664,34.177425 153.237228,33.962368 152.672806,33.456627 
	C152.910248,33.356827 153.324692,33.547714 153.875610,34.065540 
z"/>
    <path fill="#6E16B6" opacity="1.000000" stroke="none"
          d="
M105.161041,205.159225 
	C105.065048,205.517471 104.903877,205.811905 104.492371,206.176239 
	C104.242043,206.246170 104.103516,206.102539 104.151825,205.818817 
	C104.400330,205.270905 104.655899,205.081329 104.966835,204.966415 
	C104.966835,204.966415 105.095856,205.095398 105.161041,205.159225 
z"/>
    <path fill="#F7EBF9" opacity="1.000000" stroke="none"
          d="
M151.862457,32.743961 
	C151.667953,32.847939 151.337860,32.716373 150.878067,32.341167 
	C151.074539,32.234489 151.400711,32.371456 151.862457,32.743961 
z"/>
    <path fill="#F7EBF9" opacity="1.000000" stroke="none"
          d="
M167.297455,99.870735 
	C167.190384,99.681488 167.301559,99.366264 167.646759,98.941727 
	C167.759109,99.136528 167.637405,99.440643 167.297455,99.870735 
z"/>
    <path fill="#6E16B6" opacity="1.000000" stroke="none"
          d="
M107.098396,203.100372 
	C106.989235,203.440033 106.830261,203.730865 106.430405,204.104401 
	C106.189529,204.187119 106.078117,204.076355 106.134842,203.808990 
	C106.386818,203.276169 106.637444,203.082260 106.943428,202.959900 
	C106.943428,202.959900 107.048584,203.051559 107.098396,203.100372 
z"/>
    <path fill="#F7EBF9" opacity="1.000000" stroke="none"
          d="
M149.863647,31.525509 
	C149.642899,31.778202 149.374756,31.685017 149.106293,31.201828 
	C149.324829,31.026314 149.561600,31.148914 149.863647,31.525509 
z"/>
    <path fill="#F7EBF9" opacity="1.000000" stroke="none"
          d="
M158.547348,120.469688 
	C158.578568,120.522820 158.516129,120.416557 158.547348,120.469688 
z"/>
    <path fill="#F7EBF9" opacity="1.000000" stroke="none"
          d="
M139.744446,137.068069 
	C139.859222,137.296036 139.671204,137.541641 139.178589,137.800934 
	C139.056458,137.565277 139.245682,137.322311 139.744446,137.068069 
z"/>
    <path fill="#F7EBF9" opacity="1.000000" stroke="none"
          d="
M144.174652,121.946938 
	C144.029465,121.655182 144.214111,121.451561 144.745346,121.377441 
	C144.836288,121.643234 144.640457,121.819275 144.174652,121.946938 
z"/>
    <path fill="#F7EBF9" opacity="1.000000" stroke="none"
          d="
M155.450836,121.531799 
	C155.418228,121.476944 155.483444,121.586662 155.450836,121.531799 
z"/>
    <path fill="#F7EBF9" opacity="1.000000" stroke="none"
          d="
M150.036469,118.795105 
	C149.994431,118.563980 150.223999,118.304222 150.719299,117.999054 
	C150.759399,118.224579 150.533737,118.495529 150.036469,118.795105 
z"/>
    <path fill="#F7EBF9" opacity="1.000000" stroke="none"
          d="
M159.868042,39.839432 
	C159.657150,39.910099 159.356827,39.734608 158.987564,39.299850 
	C159.205292,39.224815 159.491943,39.409046 159.868042,39.839432 
z"/>
    <path fill="#632C99" opacity="1.000000" stroke="none"
          d="
M135.940186,200.303238 
	C136.164932,200.241043 136.461838,200.449875 136.820648,200.933029 
	C136.592484,200.996323 136.302414,200.785294 135.940186,200.303238 
z"/>
    <path fill="#9022C3" opacity="1.000000" stroke="none"
          d="
M212.177856,132.653412 
	C211.974976,132.739395 211.635391,132.573715 211.170593,132.145660 
	C211.377319,132.056107 211.709244,132.228928 212.177856,132.653412 
z"/>
    <path fill="#F7EBF9" opacity="1.000000" stroke="none"
          d="
M148.168518,129.186462 
	C148.174133,129.404404 147.877701,129.643707 147.292572,129.944550 
	C147.291397,129.740021 147.578918,129.473938 148.168518,129.186462 
z"/>
    <path fill="#F7EBF9" opacity="1.000000" stroke="none"
          d="
M149.740540,128.050903 
	C149.870743,128.280472 149.710800,128.523438 149.240417,128.739136 
	C149.112335,128.489868 149.285812,128.274017 149.740540,128.050903 
z"/>
    <path fill="#F7EBF9" opacity="1.000000" stroke="none"
          d="
M138.686996,138.070862 
	C138.913818,138.328354 138.769104,138.609924 138.221802,138.878983 
	C138.060776,138.636826 138.226196,138.379639 138.686996,138.070862 
z"/>
    <path fill="#8B1AC5" opacity="1.000000" stroke="none"
          d="
M48.610374,126.000244 
	C54.082596,126.990608 59.176693,127.989616 64.676239,129.312622 
	C65.721535,130.089066 66.361374,130.541489 67.350525,131.000061 
	C68.801109,132.003342 69.902382,133.000458 71.003647,133.997559 
	C71.003464,134.442276 71.003281,134.887009 70.611420,135.665405 
	C68.803726,136.364700 67.387711,136.730331 65.588058,137.068512 
	C63.923943,137.070648 62.643467,137.100220 60.916534,137.089172 
	C58.980358,137.031952 57.490639,137.015366 56.000916,136.998779 
	C56.115376,134.037216 54.875038,132.644043 51.768631,133.169968 
	C50.908237,133.315643 49.953232,133.179626 49.089252,132.973389 
	C46.779812,132.422089 44.496220,131.762527 41.306545,130.905212 
	C41.244820,127.602577 44.866787,126.933182 48.610374,126.000244 
z"/>
    <path fill="#9122C3" opacity="1.000000" stroke="none"
          d="
M65.971695,137.095963 
	C67.387711,136.730331 68.803726,136.364700 70.613838,135.998932 
	C73.037140,135.522522 75.048904,134.939636 77.101089,134.603806 
	C78.736786,134.336121 80.421814,134.369797 82.266357,135.415161 
	C81.181259,135.728592 80.096161,136.042023 78.452217,136.516891 
	C81.525902,137.881668 84.201897,139.069885 86.790741,140.795532 
	C86.703590,141.332977 86.378929,141.694092 86.020294,141.605225 
	C79.098343,140.042892 72.535019,138.569427 65.971695,137.095963 
z"/>
    <path fill="#9122C3" opacity="1.000000" stroke="none"
          d="
M71.357513,133.960785 
	C69.902382,133.000458 68.801109,132.003342 67.350372,130.626251 
	C66.999710,129.498337 66.998505,128.750443 66.997299,128.002533 
	C66.997299,128.002533 67.000000,128.000000 67.001343,127.998650 
	C69.757843,127.997299 72.513000,127.997299 75.268158,127.997299 
	C75.553635,128.381241 75.839119,128.765182 76.124596,129.149139 
	C74.653519,130.740768 73.182442,132.332382 71.357513,133.960785 
z"/>
    <path fill="#9122C3" opacity="1.000000" stroke="none"
          d="
M86.866699,141.153137 
	C89.319359,142.080170 91.608902,143.187042 93.785454,144.853912 
	C93.556633,145.557907 93.440804,145.701920 93.015617,145.700394 
	C90.597145,144.267944 88.488037,142.981018 86.378929,141.694092 
	C86.378929,141.694092 86.703590,141.332977 86.866699,141.153137 
z"/>
    <path fill="#9122C3" opacity="1.000000" stroke="none"
          d="
M97.008720,147.977158 
	C98.337166,149.056870 99.665611,150.136566 101.008659,151.588196 
	C101.023262,151.960098 100.701660,152.260925 100.270027,152.250397 
	C98.691551,151.005112 97.544708,149.770355 96.551521,148.397034 
	C96.705177,148.258438 97.008720,147.977158 97.008720,147.977158 
z"/>
    <path fill="#9122C3" opacity="1.000000" stroke="none"
          d="
M93.847839,145.199219 
	C94.341301,145.092697 94.600937,145.281326 94.742844,145.936493 
	C94.683563,146.322571 94.345207,146.663055 94.152328,146.557892 
	C93.713829,146.286148 93.502335,146.083878 93.324974,145.845917 
	C93.440804,145.701920 93.556633,145.557907 93.847839,145.199219 
z"/>
    <path fill="#9122C3" opacity="1.000000" stroke="none"
          d="
M94.853897,146.153473 
	C95.342560,146.092712 95.601624,146.282104 95.763245,146.916702 
	C95.725067,147.280853 95.431816,147.575958 95.218185,147.466156 
	C94.733627,147.173904 94.513840,146.942795 94.345207,146.663055 
	C94.345207,146.663055 94.683563,146.322571 94.853897,146.153473 
z"/>
    <path fill="#9122C3" opacity="1.000000" stroke="none"
          d="
M95.872887,147.134491 
	C96.336945,147.092682 96.593895,147.278992 96.900146,147.762085 
	C97.008720,147.977158 96.705177,148.258438 96.353027,148.278259 
	C95.751999,148.104034 95.562309,147.863327 95.431816,147.575958 
	C95.431816,147.575958 95.725067,147.280853 95.872887,147.134491 
z"/>
    <path fill="#6312B1" opacity="1.000000" stroke="none"
          d="
M83.038231,217.684906 
	C75.214493,221.779022 67.097717,221.717209 58.425243,220.031128 
	C60.027203,218.971039 62.050617,217.925903 64.074036,216.880768 
	C64.162010,216.401764 64.249985,215.922760 64.337959,215.443771 
	C59.962059,214.253433 55.586163,213.063095 50.438103,211.662720 
	C52.436119,209.936676 54.081188,208.515533 55.726254,207.094376 
	C55.556286,206.597626 55.386314,206.100876 55.216343,205.604126 
	C53.539211,206.176407 51.862080,206.748703 49.932999,207.406967 
	C46.368900,203.178238 42.742081,197.914246 36.092270,195.493927 
	C33.880951,194.689087 32.545506,190.949997 31.222475,188.342850 
	C28.510960,182.999588 23.455339,180.809143 17.582106,177.368301 
	C18.019754,171.120026 18.520121,163.976364 19.043512,156.407684 
	C20.647810,157.755142 22.034565,159.766479 23.853191,161.247528 
	C27.064186,163.862457 30.669338,165.996887 33.849468,168.644760 
	C35.549038,170.059875 37.007462,171.968002 38.044113,173.933472 
	C40.187809,177.997910 42.084908,178.219131 45.451000,174.178009 
	C47.580532,178.731522 49.179741,183.537888 51.015942,188.251953 
	C55.799782,200.533463 64.481125,209.313782 79.891739,202.667862 
	C79.198776,203.815247 78.505814,204.962631 77.641418,206.393860 
	C78.392830,206.717804 79.369766,207.138992 80.712723,207.717987 
	C78.953453,210.335892 76.346756,213.545639 82.592781,213.587341 
	C82.757881,213.588455 82.906654,216.033966 83.038231,217.684906 
M69.119484,216.274170 
	C68.574791,216.466614 68.030098,216.659058 67.485397,216.851486 
	C67.613197,217.130600 67.740997,217.409729 67.868790,217.688843 
	C68.429337,217.362549 68.989883,217.036255 69.119484,216.274170 
z"/>
    <path fill="#8C25BE" opacity="1.000000" stroke="none"
          d="
M174.004272,137.001221 
	C174.560791,136.830841 175.117310,136.660461 175.844696,136.246307 
	C181.054840,136.329956 186.094131,136.657394 191.552246,136.999527 
	C196.758865,139.729889 201.707794,142.206161 206.260513,145.271027 
	C208.273178,146.625931 209.482864,149.173599 211.076263,151.565002 
	C211.095474,151.950211 211.023682,151.980499 210.709229,151.862183 
	C200.479187,141.298782 188.137405,137.263290 174.002289,137.726379 
	C174.003250,137.484665 174.004272,137.001221 174.004272,137.001221 
z"/>
    <path fill="#8221B9" opacity="1.000000" stroke="none"
          d="
M219.021545,167.564804 
	C219.877884,175.355774 217.566895,181.957977 213.731659,188.614853 
	C212.667770,188.649780 211.942734,188.340408 211.322449,187.709808 
	C215.616165,181.189301 218.225220,174.308853 216.776581,166.928406 
	C215.763702,161.768188 213.003479,156.950928 211.023682,151.980499 
	C211.023682,151.980499 211.095474,151.950211 211.124649,151.923920 
	C216.078339,152.053192 215.802887,156.802658 217.509094,159.569382 
	C218.776154,161.624008 218.567123,164.588943 219.021545,167.564804 
z"/>
    <path fill="#6110B2" opacity="1.000000" stroke="none"
          d="
M194.048355,218.049042 
	C188.078842,221.608780 181.462769,221.002106 174.420593,220.668945 
	C172.267044,220.222397 170.635544,220.120834 169.004059,220.019272 
	C169.004059,220.019272 168.997391,220.006729 168.987915,220.007355 
	C167.688095,217.959824 166.397736,215.911667 165.107376,213.863525 
	C164.534409,214.239243 163.961441,214.614960 163.388474,214.990677 
	C164.818588,214.236465 166.248703,213.482254 168.015640,212.550400 
	C164.686249,207.589417 156.028793,208.127808 156.304245,200.467133 
	C153.983658,200.232346 151.746170,200.005966 149.581268,199.786942 
	C149.316376,196.180801 149.079941,192.961929 148.843506,189.743057 
	C148.462158,190.042847 148.080811,190.342636 147.699463,190.642426 
	C144.084824,187.202377 140.577988,183.637573 136.806778,180.378708 
	C135.105637,178.908676 132.877747,178.048233 129.722198,176.244247 
	C129.722198,173.319382 129.722198,168.487274 129.868912,163.327789 
	C133.203903,165.106598 136.551224,167.010574 139.544037,169.365189 
	C144.310669,173.115356 148.922699,177.075546 153.421692,181.144180 
	C154.766220,182.360107 155.515228,184.234558 156.595047,185.896515 
	C156.808701,185.540833 157.176102,184.929230 157.778320,184.151398 
	C158.013168,183.985168 158.028107,183.980804 158.128082,184.206512 
	C158.426422,184.712234 158.689972,184.901474 159.026184,185.372742 
	C159.047409,186.491104 159.061172,187.236664 158.714676,188.047302 
	C157.217575,190.127747 156.080750,192.143097 154.943909,194.158463 
	C155.276855,194.374481 155.609818,194.590500 155.942764,194.806519 
	C157.320877,193.520798 158.698990,192.235092 160.355103,191.079483 
	C161.391754,191.478714 162.150421,191.747833 163.023651,192.119263 
	C163.138214,192.221588 163.147766,192.528717 163.097137,192.952103 
	C164.019638,195.725006 164.593323,198.363220 166.042725,200.368484 
	C169.979767,205.815475 175.862381,206.475204 182.080780,206.375488 
	C183.954376,208.697281 187.772095,208.942932 187.388458,212.899796 
	C187.360977,213.183151 188.918808,213.808868 189.791946,213.949219 
	C191.321365,214.195068 192.891479,214.187759 194.048355,214.261307 
	C194.048355,215.874710 194.048355,216.961884 194.048355,218.049042 
M188.548492,216.777206 
	C188.548370,217.163757 188.548233,217.550308 188.548111,217.936874 
	C189.208069,217.640686 189.868027,217.344482 190.527985,217.048279 
	C190.042709,216.866119 189.557434,216.683945 188.548492,216.777206 
M179.483902,207.590469 
	C179.483902,207.590469 179.416092,207.478455 179.483902,207.590469 
z"/>
    <path fill="#881AC5" opacity="1.000000" stroke="none"
          d="
M171.395538,87.864716 
	C170.419418,88.915047 169.504471,89.687614 168.949951,90.664734 
	C167.087387,93.946785 165.353271,97.301743 163.289886,100.392914 
	C163.531647,97.307495 164.315353,94.469925 164.446274,91.602547 
	C164.498489,90.459190 163.366486,88.756264 162.306229,88.201881 
	C161.113419,87.578186 159.393097,87.963303 157.956390,87.543907 
	C158.975388,84.762833 159.940247,82.347443 161.090942,79.875336 
	C161.352646,79.715622 161.509384,79.540771 161.491669,79.520821 
	C161.330658,79.339485 161.139206,79.185181 160.950073,78.676254 
	C160.958618,77.866631 160.973755,77.403717 160.988876,76.940804 
	C161.894394,75.189575 162.799927,73.438347 164.199997,71.312004 
	C165.795547,70.624893 166.896545,70.312904 167.997559,70.000916 
	C167.998306,70.444939 167.999039,70.888954 167.751343,71.877861 
	C167.751877,74.095428 168.000870,75.768112 168.287491,77.693588 
	C169.746201,77.013603 170.841476,76.503036 171.949875,76.414032 
	C171.884277,79.879913 171.805542,82.924248 171.726807,85.968575 
	C171.691833,86.539276 171.656860,87.109970 171.395538,87.864716 
z"/>
    <path fill="#9246B6" opacity="1.000000" stroke="none"
          d="
M160.982727,76.528473 
	C160.973755,77.403717 160.958618,77.866631 160.940552,78.903595 
	C160.937637,79.477638 160.905090,79.932045 160.905090,79.932045 
	C159.940247,82.347443 158.975388,84.762833 157.674805,87.408615 
	C156.540878,87.412079 155.742661,87.185165 155.046951,86.591431 
	C155.726349,84.709976 156.391815,83.222504 156.866119,81.676399 
	C160.539886,69.700890 157.600906,56.812340 146.811600,49.102360 
	C138.799500,43.376945 129.639755,41.508224 119.982094,41.482487 
	C121.413017,40.997723 122.843948,40.512955 124.646309,40.025780 
	C127.402138,40.352654 129.786530,40.681931 132.591858,41.005970 
	C141.293091,42.775383 148.668930,46.199780 154.257248,52.799316 
	C159.978470,59.555786 162.644058,67.218018 160.982727,76.528473 
z"/>
    <path fill="#931EC7" opacity="1.000000" stroke="none"
          d="
M167.991943,69.608032 
	C166.896545,70.312904 165.795547,70.624893 164.350006,70.969406 
	C163.095016,67.105965 162.013916,63.237068 161.388824,59.295853 
	C161.223404,58.252892 162.462524,56.987175 163.056732,55.823742 
	C163.456299,55.937962 163.855850,56.052185 164.255417,56.166409 
	C165.499054,60.515987 166.742691,64.865570 167.991943,69.608032 
z"/>
    <path fill="#8234AB" opacity="1.000000" stroke="none"
          d="
M171.870056,85.570282 
	C171.805542,82.924248 171.884277,79.879913 171.966385,76.065254 
	C171.652145,74.196030 171.334518,73.097130 171.016891,71.998238 
	C170.715042,69.595558 170.413193,67.192879 170.058990,64.056686 
	C169.671280,62.546375 169.335907,61.769569 169.000534,60.992760 
	C169.008911,60.204006 169.017273,59.415257 169.056702,58.233837 
	C169.847458,59.441853 170.607147,61.042534 171.634109,62.858742 
	C171.938690,70.440178 171.975998,77.806084 171.870056,85.570282 
z"/>
    <path fill="#931EC7" opacity="1.000000" stroke="none"
          d="
M170.639633,71.998596 
	C171.334518,73.097130 171.652145,74.196030 171.953262,75.643692 
	C170.841476,76.503036 169.746201,77.013603 168.287491,77.693588 
	C168.000870,75.768112 167.751877,74.095428 167.751740,72.210876 
	C168.754532,71.998993 169.508453,71.998970 170.639633,71.998596 
z"/>
    <path fill="#9423C5" opacity="1.000000" stroke="none"
          d="
M140.112717,28.214794 
	C141.854614,28.461246 143.613678,29.066534 145.680069,29.849308 
	C144.034897,29.542406 142.082382,29.058018 140.112717,28.214794 
z"/>
    <path fill="#931EC7" opacity="1.000000" stroke="none"
          d="
M164.086258,48.243820 
	C165.157059,49.282581 166.186340,50.720345 167.213303,52.502377 
	C166.155563,51.445370 165.100143,50.044098 164.086258,48.243820 
z"/>
    <path fill="#931EC7" opacity="1.000000" stroke="none"
          d="
M168.746170,61.194202 
	C169.335907,61.769569 169.671280,62.546375 170.008881,63.661079 
	C169.504684,63.131203 168.998245,62.263424 168.746170,61.194202 
z"/>
    <path fill="#931EC7" opacity="1.000000" stroke="none"
          d="
M167.104370,53.208012 
	C167.740417,53.685452 168.331909,54.525475 168.931274,55.687714 
	C168.312698,55.196815 167.686264,54.383705 167.104370,53.208012 
z"/>
    <path fill="#931EC7" opacity="1.000000" stroke="none"
          d="
M163.555725,46.249908 
	C163.866150,46.477421 163.988037,46.881218 164.148499,47.601978 
	C163.913773,47.421360 163.640488,46.923779 163.555725,46.249908 
z"/>
    <path fill="#6111B1" opacity="1.000000" stroke="none"
          d="
M143.017822,119.602737 
	C142.696167,120.418236 142.351685,120.856377 141.933365,121.572739 
	C137.707550,119.994568 134.859512,123.344566 131.225067,124.723724 
	C124.591270,124.779411 118.183647,124.569122 111.395065,124.192490 
	C112.767464,122.687302 114.520821,121.348457 116.690704,120.143494 
	C117.192757,120.326714 117.278297,120.376045 117.363831,120.425377 
	C117.242790,120.283379 117.121758,120.141380 117.000725,119.999382 
	C116.851341,119.203995 116.971909,118.170181 116.511795,117.649254 
	C110.324158,110.643883 104.175087,107.090164 95.288353,105.358467 
	C97.207413,100.802094 95.006546,98.674973 90.711586,97.733055 
	C89.644135,97.498970 88.627243,96.742157 87.739891,96.034126 
	C85.161766,93.976952 82.661148,91.822624 80.206192,89.300186 
	C80.186386,88.927017 80.090515,88.960075 79.994644,88.993141 
	C78.585815,90.325493 77.176987,91.657837 75.380768,92.983597 
	C73.988243,88.268860 72.983109,83.560707 72.248421,78.221237 
	C72.681274,76.727470 72.843689,75.865005 73.363083,75.037743 
	C76.207115,76.900703 78.664764,78.770210 81.187408,80.547470 
	C86.309860,84.156364 91.546547,87.608604 96.579857,91.336433 
	C99.437820,93.453110 101.986504,95.987373 104.674469,98.333580 
	C104.919670,98.013977 105.164864,97.694374 105.410065,97.374763 
	C105.042252,95.173172 104.674438,92.971573 104.652313,90.814484 
	C107.455696,94.574379 109.598427,98.552437 112.433983,101.952736 
	C119.188156,110.052094 127.611526,108.525421 136.145554,105.416023 
	C136.447906,105.520569 136.750275,105.625122 137.526489,105.864548 
	C138.000336,105.999428 138.024857,106.019226 138.024857,106.019226 
	C136.583649,106.958900 135.142441,107.898582 132.391022,109.692543 
	C133.361755,110.058640 134.221420,110.382851 135.081100,110.707062 
	C133.295715,114.938675 136.667633,115.020279 139.179825,116.102379 
	C140.630753,116.727341 141.734833,118.157578 143.017822,119.602737 
z"/>
    <path fill="#FDFAFD" opacity="1.000000" stroke="none"
          d="
M80.036697,202.399048 
	C64.481125,209.313782 55.799782,200.533463 51.015942,188.251953 
	C49.179741,183.537888 47.580532,178.731522 45.530003,173.781876 
	C45.186672,173.596542 45.255905,173.270981 45.189808,172.756683 
	C44.794170,171.102753 44.464626,169.963135 44.135082,168.823517 
	C44.135082,168.823517 44.096725,168.938782 44.101608,168.493774 
	C43.691044,164.041092 43.275600,160.033417 42.860157,156.025726 
	C42.860157,156.025726 43.023506,155.596786 43.348309,155.192108 
	C43.790653,153.861237 43.908195,152.935028 44.025742,152.008820 
	C46.167072,148.724167 48.308407,145.439499 50.719124,141.916534 
	C52.588268,141.048141 54.188030,140.418045 56.311749,139.455841 
	C58.344799,138.459061 59.853893,137.794434 61.362988,137.129807 
	C62.643467,137.100220 63.923943,137.070648 65.588058,137.068512 
	C72.535019,138.569427 79.098343,140.042892 86.020294,141.605225 
	C88.488037,142.981018 90.597145,144.267944 93.015617,145.700394 
	C93.502335,146.083878 93.713829,146.286148 94.152328,146.557892 
	C94.513840,146.942795 94.733627,147.173904 95.218185,147.466156 
	C95.562309,147.863327 95.751999,148.104034 96.199371,148.416855 
	C97.544708,149.770355 98.691551,151.005112 100.108673,152.400208 
	C103.596771,159.070709 106.522942,165.647919 105.064941,173.974426 
	C103.154984,178.855499 101.309052,182.980621 99.463127,187.105728 
	C99.463127,187.105728 99.263199,187.299713 98.955795,187.555786 
	C97.391518,189.465881 96.134644,191.119888 94.877769,192.773895 
	C94.489235,193.245331 94.100700,193.716751 93.339111,194.590668 
	C90.648842,196.647949 88.331635,198.302765 85.660515,199.902313 
	C84.370140,200.532013 83.433662,201.216965 82.497192,201.901917 
	C81.725342,201.978027 80.953499,202.054138 80.036697,202.399048 
z"/>
    <path fill="#6312B1" opacity="1.000000" stroke="none"
          d="
M42.663986,156.135895 
	C43.275600,160.033417 43.691044,164.041092 44.162315,168.495499 
	C43.477951,165.258484 42.737759,161.574738 41.992996,157.443268 
	C42.072037,156.696960 42.231834,156.447159 42.663986,156.135895 
z"/>
    <path fill="#6312B1" opacity="1.000000" stroke="none"
          d="
M44.093136,169.206970 
	C44.464626,169.963135 44.794170,171.102753 45.080414,172.631256 
	C44.708477,171.876907 44.379833,170.733658 44.093136,169.206970 
z"/>
    <path fill="#6F15B8" opacity="1.000000" stroke="none"
          d="
M139.685303,141.153503 
	C143.144836,143.839981 146.301010,146.686432 149.457199,149.532898 
	C149.698318,149.244720 149.939438,148.956558 150.180557,148.668381 
	C151.224487,150.761627 152.268417,152.854858 153.872925,156.072128 
	C154.651749,153.500000 155.018845,152.287643 155.691162,151.438446 
	C156.181244,153.836456 156.366119,155.871323 156.631226,158.265076 
	C156.657455,159.108276 156.603439,159.592590 156.380463,160.284790 
	C156.111832,161.016495 156.012177,161.540314 155.675964,162.242920 
	C155.610962,163.277206 155.782516,164.132721 155.962723,165.405548 
	C156.301651,167.878052 156.631927,169.933243 157.040283,172.163666 
	C157.118378,172.338913 157.125214,172.722595 157.081726,173.095352 
	C157.017792,173.967636 156.997345,174.467163 156.976898,174.966690 
	C151.934662,175.736572 152.087341,171.115784 150.216843,168.126373 
	C149.389725,169.074951 148.726654,169.835403 147.724319,170.984940 
	C147.396347,169.996002 147.010605,169.417328 147.054474,168.873306 
	C147.429123,164.227844 145.214874,161.577866 140.971634,159.917389 
	C136.386581,158.123138 133.965195,150.615601 136.321182,146.365448 
	C137.275055,144.644669 138.357849,142.995331 139.685303,141.153503 
z"/>
    <path fill="#6D33A2" opacity="1.000000" stroke="none"
          d="
M156.996460,175.382248 
	C156.997345,174.467163 157.017792,173.967636 157.417084,173.253723 
	C159.500305,179.365204 161.204697,185.691086 162.909073,192.016953 
	C162.150421,191.747833 161.391754,191.478714 160.338303,190.749268 
	C159.720657,189.520020 159.397812,188.751129 159.074951,187.982224 
	C159.061172,187.236664 159.047409,186.491104 158.923645,185.148346 
	C158.617691,184.270294 158.355835,184.080185 158.028107,183.980804 
	C158.028107,183.980804 158.013168,183.985168 158.023712,183.971756 
	C157.694824,181.238159 157.355408,178.517990 156.996460,175.382248 
z"/>
    <path fill="#8C25BE" opacity="1.000000" stroke="none"
          d="
M171.239410,128.800812 
	C170.366013,128.545273 169.726471,128.095383 169.047195,127.325348 
	C169.829407,127.538956 170.651337,128.072723 171.239410,128.800812 
z"/>
    <path fill="#7818B9" opacity="1.000000" stroke="none"
          d="
M173.590805,136.999481 
	C174.004272,137.001221 174.003250,137.484665 173.634277,137.844315 
	C170.557480,138.858841 167.849640,139.513702 165.104645,140.126556 
	C165.067474,140.084518 164.990524,140.002869 164.990524,140.002869 
	C167.719467,139.001160 170.448395,137.999466 173.590805,136.999481 
z"/>
    <path fill="#7818B9" opacity="1.000000" stroke="none"
          d="
M158.996948,142.002930 
	C160.747803,141.336166 162.498642,140.669403 164.620010,140.002762 
	C164.990524,140.002869 165.067474,140.084518 164.953003,140.424042 
	C162.958221,142.294678 161.077896,143.825775 159.145279,144.939758 
	C159.060959,143.682739 159.028946,142.842834 158.996948,142.002930 
z"/>
    <path fill="#6F15B8" opacity="1.000000" stroke="none"
          d="
M158.664536,142.000793 
	C159.028946,142.842834 159.060959,143.682739 159.151520,145.120331 
	C159.210052,145.718002 158.987610,146.002655 158.987610,146.002655 
	C158.309875,144.880219 157.632141,143.757782 156.978455,142.319687 
	C157.445724,142.002228 157.888931,142.000443 158.664536,142.000793 
z"/>
    <path fill="#7818B9" opacity="1.000000" stroke="none"
          d="
M152.199615,127.852753 
	C153.313065,126.883438 154.800308,125.941032 156.632965,124.985718 
	C155.510071,125.941757 154.041733,126.910706 152.199615,127.852753 
z"/>
    <path fill="#6312B1" opacity="1.000000" stroke="none"
          d="
M44.000050,151.689026 
	C43.908195,152.935028 43.790653,153.861237 43.364029,154.963165 
	C43.054947,153.431992 43.054947,151.725113 43.054947,150.018234 
	C43.225380,149.980637 43.395813,149.943039 43.566246,149.905457 
	C43.702282,150.393372 43.838318,150.881302 44.000050,151.689026 
z"/>
    <path fill="#781CB7" opacity="1.000000" stroke="none"
          d="
M211.217712,188.031036 
	C211.942734,188.340408 212.667770,188.649780 213.690277,188.974243 
	C214.308121,189.459244 214.628510,189.929138 214.965912,190.697632 
	C212.885605,191.964355 210.788300,192.932449 208.343491,193.617340 
	C207.981216,192.883102 207.966446,192.432114 208.069122,191.678284 
	C209.196960,190.260651 210.207336,189.145844 211.217712,188.031036 
z"/>
    <path fill="#8221B9" opacity="1.000000" stroke="none"
          d="
M218.610992,187.536346 
	C219.058670,187.651932 219.333099,187.934006 219.586227,188.234055 
	C219.592804,188.241867 219.366592,188.446091 219.248947,188.558731 
	C218.977600,188.274231 218.706268,187.989731 218.610992,187.536346 
z"/>
    <path fill="#FDFBFD" opacity="1.000000" stroke="none"
          d="
M136.367737,105.182678 
	C127.611526,108.525421 119.188156,110.052094 112.433983,101.952736 
	C109.598427,98.552437 107.455696,94.574379 104.644394,90.834183 
	C104.290787,90.809372 104.290306,90.770920 104.246300,90.425552 
	C104.065514,89.400665 103.928734,88.721161 103.807442,87.672455 
	C101.644745,80.690895 99.466568,74.078537 97.305244,67.042099 
	C97.513947,62.303802 97.705795,57.989571 98.119644,53.486420 
	C98.562103,52.538525 98.782555,51.779552 99.006432,51.012318 
	C99.009850,51.004059 99.026749,51.012108 99.347931,50.972267 
	C100.185959,50.022736 100.702805,49.113049 101.167343,48.100998 
	C101.115036,47.998634 101.186722,48.217003 101.431046,48.118000 
	C101.841057,47.717472 102.006737,47.415947 102.116379,47.100143 
	C102.060349,47.085861 102.130783,47.177589 102.406242,47.152027 
	C107.457756,45.346146 112.233810,43.565826 117.009865,41.785507 
	C117.759735,41.756897 118.509605,41.728294 119.620789,41.591087 
	C129.639755,41.508224 138.799500,43.376945 146.811600,49.102360 
	C157.600906,56.812340 160.539886,69.700890 156.866119,81.676399 
	C156.391815,83.222504 155.726349,84.709976 155.052383,86.604553 
	C154.955322,86.984482 154.983353,86.983688 154.721466,87.206696 
	C152.756302,89.984329 151.383224,92.862244 149.272537,95.017952 
	C146.091537,98.266823 142.395111,101.011055 138.917770,103.969803 
	C138.141815,104.296310 137.365860,104.622826 136.367737,105.182678 
z"/>
    <path fill="#7B18BD" opacity="1.000000" stroke="none"
          d="
M154.949890,86.971359 
	C155.742661,87.185165 156.540878,87.412079 157.620667,87.774292 
	C159.393097,87.963303 161.113419,87.578186 162.306229,88.201881 
	C163.366486,88.756264 164.498489,90.459190 164.446274,91.602547 
	C164.315353,94.469925 163.531647,97.307495 163.021423,100.600182 
	C162.999847,102.091682 162.966599,103.140015 162.864090,104.577255 
	C161.226730,106.511780 159.658646,108.057411 158.107300,109.987396 
	C158.126938,110.694626 157.977341,110.913063 157.467285,111.057877 
	C157.096725,111.057747 156.873352,111.084900 156.780289,110.987526 
	C153.268066,107.312363 150.127335,103.005028 144.207031,103.004501 
	C145.785355,101.070938 147.510178,99.987801 148.699219,98.481689 
	C151.427444,95.025963 156.005753,92.505066 154.983353,86.983688 
	C154.983353,86.983688 154.955322,86.984482 154.949890,86.971359 
z"/>
    <path fill="#7537A5" opacity="1.000000" stroke="none"
          d="
M154.721466,87.206696 
	C156.005753,92.505066 151.427444,95.025963 148.699219,98.481689 
	C147.510178,99.987801 145.785355,101.070938 144.142715,102.641327 
	C142.546219,103.290665 141.110870,103.644821 139.296631,103.984390 
	C142.395111,101.011055 146.091537,98.266823 149.272537,95.017952 
	C151.383224,92.862244 152.756302,89.984329 154.721466,87.206696 
z"/>
    <path fill="#6111B1" opacity="1.000000" stroke="none"
          d="
M137.990448,105.987152 
	C138.086212,105.949211 138.191864,105.923531 138.161194,105.958542 
	C138.024857,106.019226 138.000336,105.999428 137.990448,105.987152 
z"/>
    <path fill="#FDFBFD" opacity="1.000000" stroke="none"
          d="
M211.322464,187.709808 
	C210.207336,189.145844 209.196960,190.260651 207.750488,191.774353 
	C204.144211,194.725647 200.974045,197.278015 197.871017,199.854248 
	C197.938156,199.878113 197.843628,199.771469 197.472748,199.821411 
	C179.250336,208.038071 170.230499,205.557526 163.147766,192.528717 
	C163.147766,192.528717 163.138214,192.221588 163.023651,192.119263 
	C161.204697,185.691086 159.500305,179.365204 157.460571,172.880966 
	C157.125214,172.722595 157.118378,172.338913 157.093704,171.706604 
	C156.895828,167.408493 156.722626,163.742706 156.549408,160.076904 
	C156.603439,159.592590 156.657455,159.108276 156.759186,157.859283 
	C157.288986,153.763123 157.771103,150.431625 158.253220,147.100143 
	C158.511169,146.902954 158.769104,146.705780 159.007324,146.255615 
	C158.987610,146.002655 159.210052,145.718002 159.203827,145.537445 
	C161.077896,143.825775 162.958221,142.294678 164.990173,140.466080 
	C167.849640,139.513702 170.557480,138.858841 173.633316,138.086029 
	C188.137405,137.263290 200.479187,141.298782 210.709229,151.862183 
	C213.003479,156.950928 215.763702,161.768188 216.776581,166.928406 
	C218.225220,174.308853 215.616165,181.189301 211.322464,187.709808 
z"/>
    <path fill="#6D33A2" opacity="1.000000" stroke="none"
          d="
M157.914703,147.202362 
	C157.771103,150.431625 157.288986,153.763123 156.678925,157.500397 
	C156.366119,155.871323 156.181244,153.836456 155.987717,151.397186 
	C156.511429,149.763397 157.043793,148.533981 157.914703,147.202362 
z"/>
    <path fill="#7919B7" opacity="1.000000" stroke="none"
          d="
M86.014420,199.957581 
	C88.331635,198.302765 90.648842,196.647949 93.278183,194.905609 
	C94.919678,195.687042 96.249031,196.556000 97.619545,197.451843 
	C100.625725,194.856766 104.036644,195.823593 106.998566,200.619446 
	C106.999748,201.427216 106.989418,201.865356 106.961258,202.631683 
	C106.637444,203.082260 106.386818,203.276169 106.078888,203.753845 
	C105.655006,204.083771 105.399025,204.275284 105.082565,204.753510 
	C104.655899,205.081329 104.400330,205.270905 104.083481,205.746140 
	C103.334152,206.418121 102.701485,206.879059 102.016029,207.655365 
	C101.653740,208.082443 101.397820,208.268036 101.079201,208.736679 
	C100.205986,208.673553 99.102257,208.630188 98.747330,208.092529 
	C96.061508,204.023804 92.607399,203.170593 88.104309,204.813828 
	C87.414551,205.065521 86.071144,203.526016 85.264465,202.240601 
	C85.670731,201.096710 85.842575,200.527145 86.014420,199.957581 
z"/>
    <path fill="#7919B7" opacity="1.000000" stroke="none"
          d="
M99.789017,187.349640 
	C101.309052,182.980621 103.154984,178.855499 105.118195,174.366882 
	C105.513275,175.116806 105.791061,176.230225 106.047035,177.666672 
	C104.055115,181.190979 102.085007,184.392273 99.789017,187.349640 
z"/>
    <path fill="#7919B7" opacity="1.000000" stroke="none"
          d="
M95.062729,193.049683 
	C96.134644,191.119888 97.391518,189.465881 98.899490,187.683167 
	C99.712082,190.737701 98.838097,192.950134 95.062729,193.049683 
z"/>
    <path fill="#6312B1" opacity="1.000000" stroke="none"
          d="
M85.660515,199.902313 
	C85.842575,200.527145 85.670731,201.096710 85.253525,201.845245 
	C84.450699,201.998627 83.893219,201.973068 82.916473,201.924713 
	C83.433662,201.216965 84.370140,200.532013 85.660515,199.902313 
z"/>
    <path fill="#6312B1" opacity="1.000000" stroke="none"
          d="
M82.449600,208.531952 
	C82.416458,208.476242 82.482750,208.587646 82.449600,208.531952 
z"/>
    <path fill="#7818BA" opacity="1.000000" stroke="none"
          d="
M60.916534,137.089172 
	C59.853893,137.794434 58.344799,138.459061 56.452179,139.141815 
	C56.048428,138.679886 56.028206,138.199829 56.004448,137.359283 
	C57.490639,137.015366 58.980358,137.031952 60.916534,137.089172 
z"/>
    <path fill="#8419C3" opacity="1.000000" stroke="none"
          d="
M87.943169,38.943153 
	C90.723892,36.645397 93.504616,34.347637 96.629440,32.001522 
	C100.571548,33.975163 104.169540,35.997166 107.734581,38.000648 
	C107.048363,39.759243 106.547180,41.043629 105.836517,42.950218 
	C104.461617,44.774147 103.296204,45.975868 102.130783,47.177589 
	C102.130783,47.177589 102.060349,47.085861 101.857651,47.184044 
	C101.498878,47.593815 101.342804,47.905411 101.186722,48.217003 
	C101.186722,48.217003 101.115036,47.998634 100.814896,48.056938 
	C100.043968,48.089039 99.573174,48.062828 98.711838,47.985809 
	C96.338013,47.418491 94.354736,46.901978 91.977150,46.282772 
	C95.011299,41.135365 91.003494,40.339138 87.943169,38.943153 
z"/>
    <path fill="#9246B6" opacity="1.000000" stroke="none"
          d="
M102.406242,47.152027 
	C103.296204,45.975868 104.461617,44.774147 105.850670,43.308861 
	C109.572693,42.471169 113.071091,41.897038 116.789673,41.554207 
	C112.233810,43.565826 107.457756,45.346146 102.406242,47.152027 
z"/>
    <path fill="#6E15B7" opacity="1.000000" stroke="none"
          d="
M73.006104,75.002548 
	C72.843689,75.865005 72.681274,76.727470 72.252090,77.790405 
	C70.990707,68.803955 72.177094,60.058022 77.841797,52.195663 
	C79.856300,52.183384 81.251053,52.067730 82.267029,51.983486 
	C83.621872,53.137497 85.369972,54.504486 86.970154,56.026951 
	C88.319481,57.310749 89.589264,58.704418 90.721283,60.181980 
	C91.616974,61.351078 92.250214,62.721252 93.007980,64.372894 
	C94.007553,65.497520 94.999146,66.251396 95.994675,67.335678 
	C96.001297,68.106468 96.003983,68.546844 96.000481,69.360893 
	C95.282356,71.469872 94.570412,73.205177 93.695862,75.336838 
	C89.716911,73.112602 86.390533,71.253166 82.753647,69.220146 
	C81.967773,69.887550 80.916855,70.780052 80.199913,71.388916 
	C78.584343,69.047897 77.142586,66.958733 75.700829,64.869568 
	C75.177582,65.044357 74.654335,65.219147 74.131088,65.393929 
	C73.756096,68.596802 73.381104,71.799675 73.006104,75.002548 
M78.480988,55.590260 
	C78.480988,55.590260 78.411598,55.475395 78.480988,55.590260 
z"/>
    <path fill="#7917BC" opacity="1.000000" stroke="none"
          d="
M93.000000,64.002136 
	C92.250214,62.721252 91.616974,61.351078 90.721283,60.181980 
	C89.589264,58.704418 88.319481,57.310749 86.970154,56.026951 
	C85.369972,54.504486 83.621872,53.137497 82.267029,51.983486 
	C81.251053,52.067730 79.856300,52.183384 78.193771,52.122826 
	C79.599953,48.868923 81.273918,45.791233 82.984818,42.360207 
	C84.462051,41.084072 85.902351,40.161270 87.642914,39.090813 
	C91.003494,40.339138 95.011299,41.135365 91.977150,46.282772 
	C94.354736,46.901978 96.338013,47.418491 98.693810,48.356812 
	C99.053131,49.523117 99.039940,50.267612 99.026749,51.012108 
	C99.026749,51.012108 99.009850,51.004059 98.725204,50.971161 
	C98.251740,50.955532 98.062927,50.972801 97.629326,51.198463 
	C93.527733,54.485767 96.718452,58.507370 95.695923,62.128418 
	C94.616333,62.837460 93.808167,63.419796 93.000000,64.002136 
z"/>
    <path fill="#781CB7" opacity="1.000000" stroke="none"
          d="
M216.870209,201.845551 
	C215.510727,204.224213 213.912750,206.309952 212.157715,208.698273 
	C209.888229,210.246689 207.775818,211.492538 204.997711,212.809616 
	C202.989975,210.600906 201.647903,208.320953 200.235916,205.922195 
	C199.308655,205.070938 198.148163,204.005569 197.124527,202.635010 
	C197.455460,201.477036 197.649551,200.624252 197.843628,199.771469 
	C197.843628,199.771469 197.938156,199.878113 198.255829,199.909073 
	C201.704453,198.273560 204.835403,196.607071 207.966339,194.940582 
	C210.854797,197.144577 213.743256,199.348602 216.870209,201.845551 
z"/>
    <path fill="#6E13B9" opacity="1.000000" stroke="none"
          d="
M196.987686,202.940216 
	C198.148163,204.005569 199.308655,205.070938 200.235916,205.922195 
	C201.647903,208.320953 202.989975,210.600906 204.690720,212.948364 
	C201.642197,214.686142 198.234985,216.356384 194.438065,218.037842 
	C194.048355,216.961884 194.048355,215.874710 194.048355,214.261307 
	C192.891479,214.187759 191.321365,214.195068 189.791946,213.949219 
	C188.918808,213.808868 187.360977,213.183151 187.388458,212.899796 
	C187.772095,208.942932 183.954376,208.697281 182.496872,206.362320 
	C187.566513,204.975311 192.277100,203.957764 196.987686,202.940216 
z"/>
    <path fill="#5811AB" opacity="1.000000" stroke="none"
          d="
M169.251358,220.299866 
	C170.635544,220.120834 172.267044,220.222397 173.957642,220.664917 
	C172.510712,220.864075 171.004684,220.722275 169.251358,220.299866 
z"/>
    <path fill="#6D33A2" opacity="1.000000" stroke="none"
          d="
M207.976227,194.708511 
	C204.835403,196.607071 201.704453,198.273560 198.188690,199.885193 
	C200.974045,197.278015 204.144211,194.725647 207.633026,192.077194 
	C207.966446,192.432114 207.981216,192.883102 207.999420,193.673157 
	C208.002869,194.012207 207.986115,194.476440 207.976227,194.708511 
z"/>
    <path fill="#9723C8" opacity="1.000000" stroke="none"
          d="
M66.699997,128.022308 
	C66.998505,128.750443 66.999710,129.498337 67.001068,130.620071 
	C66.361374,130.541489 65.721535,130.089066 65.038681,129.315430 
	C65.464684,128.676834 65.933693,128.359467 66.699997,128.022308 
z"/>
    <path fill="#5810AB" opacity="1.000000" stroke="none"
          d="
M69.334953,216.492065 
	C68.989883,217.036255 68.429337,217.362549 67.868790,217.688843 
	C67.740997,217.409729 67.613197,217.130600 67.485397,216.851486 
	C68.030098,216.659058 68.574791,216.466614 69.334953,216.492065 
z"/>
    <path fill="#6D33A2" opacity="1.000000" stroke="none"
          d="
M197.124527,202.635010 
	C192.277100,203.957764 187.566513,204.975311 182.439835,206.006027 
	C175.862381,206.475204 169.979767,205.815475 166.042725,200.368484 
	C164.593323,198.363220 164.019638,195.725006 163.097137,192.952103 
	C170.230499,205.557526 179.250336,208.038071 197.472748,199.821411 
	C197.649551,200.624252 197.455460,201.477036 197.124527,202.635010 
z"/>
    <path fill="#6613B0" opacity="1.000000" stroke="none"
          d="
M158.714691,188.047302 
	C159.397812,188.751129 159.720657,189.520020 160.060303,190.619141 
	C158.698990,192.235092 157.320877,193.520798 155.942764,194.806519 
	C155.609818,194.590500 155.276855,194.374481 154.943909,194.158463 
	C156.080750,192.143097 157.217575,190.127747 158.714691,188.047302 
z"/>
    <path fill="#6E13B9" opacity="1.000000" stroke="none"
          d="
M188.810333,216.639496 
	C189.557434,216.683945 190.042709,216.866119 190.527985,217.048279 
	C189.868027,217.344482 189.208069,217.640686 188.548111,217.936859 
	C188.548233,217.550308 188.548370,217.163757 188.810333,216.639496 
z"/>
    <path fill="#6E13B9" opacity="1.000000" stroke="none"
          d="
M179.449997,207.534454 
	C179.416092,207.478455 179.483902,207.590469 179.449997,207.534454 
z"/>
    <path fill="#6613B0" opacity="1.000000" stroke="none"
          d="
M158.128082,184.206512 
	C158.355835,184.080185 158.617691,184.270294 158.916199,184.775543 
	C158.689972,184.901474 158.426422,184.712234 158.128082,184.206512 
z"/>
    <path fill="#931EC7" opacity="1.000000" stroke="none"
          d="
M161.090942,79.875336 
	C160.905090,79.932045 160.937637,79.477638 160.947144,79.250305 
	C161.139206,79.185181 161.330658,79.339485 161.491669,79.520821 
	C161.509384,79.540771 161.352646,79.715622 161.090942,79.875336 
z"/>
    <path fill="#6814B3" opacity="1.000000" stroke="none"
          d="
M73.363083,75.037743 
	C73.381104,71.799675 73.756096,68.596802 74.131088,65.393929 
	C74.654335,65.219147 75.177582,65.044357 75.700829,64.869568 
	C77.142586,66.958733 78.584343,69.047897 80.199913,71.388916 
	C80.916855,70.780052 81.967773,69.887550 82.753647,69.220146 
	C86.390533,71.253166 89.716911,73.112602 93.695862,75.336838 
	C94.570412,73.205177 95.282356,71.469872 96.286446,69.177109 
	C96.815193,68.235161 97.051796,67.850662 97.288391,67.466171 
	C99.466568,74.078537 101.644745,80.690895 103.523903,87.820267 
	C102.578232,88.905457 101.931587,89.473618 100.455086,90.770920 
	C102.478241,90.770920 103.384270,90.770920 104.290306,90.770920 
	C104.290306,90.770920 104.290787,90.809372 104.298706,90.789673 
	C104.674438,92.971573 105.042252,95.173172 105.410065,97.374763 
	C105.164864,97.694374 104.919670,98.013977 104.674469,98.333580 
	C101.986504,95.987373 99.437820,93.453110 96.579857,91.336433 
	C91.546547,87.608604 86.309860,84.156364 81.187408,80.547470 
	C78.664764,78.770210 76.207115,76.900703 73.363083,75.037743 
z"/>
    <path fill="#5910AD" opacity="1.000000" stroke="none"
          d="
M79.997322,88.996567 
	C80.090515,88.960075 80.186386,88.927017 80.144592,88.949661 
	C80.006920,89.005363 80.000000,89.000000 79.997322,88.996567 
z"/>
    <path fill="#5910AD" opacity="1.000000" stroke="none"
          d="
M117.000366,119.999695 
	C117.121758,120.141380 117.242790,120.283379 117.363831,120.425377 
	C117.278297,120.376045 117.192757,120.326714 117.053307,120.139053 
	C116.999390,120.000717 117.000000,120.000000 117.000366,119.999695 
z"/>
    <path fill="#6D33A2" opacity="1.000000" stroke="none"
          d="
M156.380463,160.284790 
	C156.722626,163.742706 156.895828,167.408493 157.015625,171.531357 
	C156.631927,169.933243 156.301651,167.878052 155.973068,165.039490 
	C155.954010,163.525452 155.933258,162.794800 155.912506,162.064148 
	C156.012177,161.540314 156.111832,161.016495 156.380463,160.284790 
z"/>
    <path fill="#6613B0" opacity="1.000000" stroke="none"
          d="
M155.675949,162.242920 
	C155.933258,162.794800 155.954010,163.525452 155.964417,164.622162 
	C155.782516,164.132721 155.610962,163.277206 155.675949,162.242920 
z"/>
    <path fill="#6D21A5" opacity="1.000000" stroke="none"
          d="
M97.305252,67.042099 
	C97.051796,67.850662 96.815193,68.235161 96.292633,68.803436 
	C96.003983,68.546844 96.001297,68.106468 95.996284,66.918419 
	C95.985092,64.781067 95.976219,63.391388 95.967346,62.001709 
	C96.718452,58.507370 93.527733,54.485767 97.626183,51.534420 
	C97.877769,52.333103 97.887703,53.004223 97.897644,53.675339 
	C97.705795,57.989571 97.513947,62.303802 97.305252,67.042099 
z"/>
    <path fill="#6111B1" opacity="1.000000" stroke="none"
          d="
M104.246300,90.425552 
	C103.384270,90.770920 102.478241,90.770920 100.455086,90.770920 
	C101.931587,89.473618 102.578232,88.905457 103.508415,88.189468 
	C103.928734,88.721161 104.065514,89.400665 104.246300,90.425552 
z"/>
    <path fill="#9246B6" opacity="1.000000" stroke="none"
          d="
M99.347931,50.972267 
	C99.039940,50.267612 99.053131,49.523117 99.084351,48.407619 
	C99.573174,48.062828 100.043968,48.089039 100.867203,48.159302 
	C100.702805,49.113049 100.185959,50.022736 99.347931,50.972267 
z"/>
    <path fill="#9246B6" opacity="1.000000" stroke="none"
          d="
M98.119644,53.486420 
	C97.887703,53.004223 97.877769,52.333103 97.870972,51.326031 
	C98.062927,50.972801 98.251740,50.955532 98.721786,50.979424 
	C98.782555,51.779552 98.562103,52.538525 98.119644,53.486420 
z"/>
    <path fill="#9246B6" opacity="1.000000" stroke="none"
          d="
M101.431053,48.118004 
	C101.342804,47.905411 101.498878,47.593815 101.913689,47.198322 
	C102.006737,47.415947 101.841057,47.717472 101.431053,48.118004 
z"/>
    <path fill="#6814B3" opacity="1.000000" stroke="none"
          d="
M95.695930,62.128418 
	C95.976219,63.391388 95.985092,64.781067 95.992340,66.588013 
	C94.999146,66.251396 94.007553,65.497520 93.007980,64.372887 
	C93.808167,63.419796 94.616333,62.837460 95.695930,62.128418 
z"/>
    <path fill="#7917BC" opacity="1.000000" stroke="none"
          d="
M78.446289,55.532829 
	C78.411598,55.475395 78.480988,55.590260 78.446289,55.532829 
z"/>
</svg>