<svg version="1.1" id="Layer_1" xmlns="http://www.w3.org/2000/svg" xmlns:xlink="http://www.w3.org/1999/xlink" x="0px" y="0px"
	 width="100%" viewBox="0 0 993 1024" enable-background="new 0 0 993 1024" xml:space="preserve">
<path fill="#ffffff" opacity="0" stroke="none"
	d="
M994.000000,279.000000
	C994.000000,528.000000 994.000000,776.500000 994.000000,1025.000000
	C663.000000,1025.000000 332.000000,1025.000000 1.000000,1025.000000
	C1.000000,683.666687 1.000000,342.333344 1.000000,1.000000
	C332.000000,1.000000 663.000000,1.000000 994.000000,1.000000
	C994.000000,93.500000 994.000000,186.000000 994.000000,279.000000
M339.979919,55.570591
	C317.731873,51.602119 295.599243,46.730942 273.209747,43.869061
	C236.268967,39.147198 199.391891,40.168385 163.174744,49.989864
	C111.682381,63.953720 73.889259,94.390350 51.613556,143.348358
	C40.896858,166.901718 35.119930,191.756516 32.253693,217.326569
	C29.424694,242.564392 28.408449,267.968750 31.600439,293.157013
	C34.818203,318.548676 39.139591,343.848206 44.137653,368.957184
	C56.933563,433.240448 73.494202,496.560791 95.042404,558.508606
	C108.103271,596.056641 122.808411,632.914185 143.108368,667.257202
	C154.427109,686.406067 167.193375,704.465698 185.017441,718.292175
	C201.062958,730.739075 218.847122,736.867126 239.159470,731.674011
	C254.680099,727.705933 266.972107,718.341003 277.377869,706.523438
	C297.744873,683.393188 317.841095,660.024658 338.181427,636.870789
	C345.629700,628.392334 353.452515,620.242859 361.041656,612.011414
	C379.040222,621.665161 397.833069,626.489258 418.784454,627.385803
	C412.901703,634.761597 407.730835,641.197083 402.613037,647.674500
	C397.204620,654.519775 390.541595,659.726074 382.110291,662.062439
	C369.312500,665.608765 356.411255,668.788452 343.522736,671.998352
	C332.365784,674.777039 321.193542,677.546631 311.805695,684.632385
	C298.485138,694.686340 297.070618,710.411438 308.816559,722.198792
	C313.087677,726.484985 318.312347,730.064026 323.627289,733.021606
	C339.503540,741.856506 357.111816,744.829590 374.881134,746.457092
	C409.668335,749.643311 442.136322,743.055481 470.883301,722.144409
	C474.444611,719.553772 477.832672,716.725037 481.914398,713.525879
	C481.914398,715.736694 481.919708,717.169128 481.913666,718.601624
	C481.695557,770.102295 482.245941,821.576904 486.998749,872.914612
	C489.124634,895.877502 493.035767,918.224731 503.792816,939.158508
	C525.423279,981.252258 560.324951,1001.204468 607.080872,997.213379
	C628.126221,995.417053 648.377136,990.226196 667.946655,982.508972
	C693.883667,972.280640 714.577759,955.804932 727.662598,930.662537
	C734.543701,917.440491 739.753235,903.486206 741.919250,888.833557
	C749.292419,838.954834 756.087585,788.990051 762.975159,739.040466
	C764.670105,726.748108 765.878357,714.388550 767.312561,702.040771
	C772.757751,703.094971 777.771301,704.306763 782.855286,705.007385
	C802.815674,707.758118 822.710327,706.480957 842.636169,704.144348
	C879.916443,699.772522 913.454590,686.546936 942.530701,662.623108
	C951.039490,655.622131 959.102722,648.070618 963.386292,637.522766
	C968.887390,623.976685 962.464233,610.578552 948.190613,608.151367
	C940.361755,606.820068 931.876465,607.300415 923.996460,608.702393
	C900.024475,612.967346 876.095215,617.188354 851.615601,615.950867
	C840.283752,615.377991 829.103455,613.839172 818.991516,607.453491
	C819.842041,606.027039 820.563660,604.737976 821.358032,603.495422
	C883.263611,506.659180 928.297485,402.796478 951.402588,289.902618
	C958.840088,253.562286 963.110474,216.866074 958.937134,179.702866
	C957.007385,162.518555 952.918335,145.885254 942.112610,131.825134
	C928.135254,113.638275 912.002625,97.554298 893.706970,83.676903
	C851.150330,51.397228 802.787537,34.634212 749.932739,29.865490
	C697.160156,25.104177 645.625244,31.211613 595.203979,47.336250
	C593.439087,47.900654 591.259766,47.843800 589.426636,47.417847
	C567.121094,42.234913 544.504395,39.506378 521.638916,39.144337
	C478.105255,38.455040 437.055664,47.297840 400.032166,71.393272
	C398.493256,72.394829 395.670715,72.240952 393.724579,71.672417
	C376.038696,66.505707 358.414764,61.126900 339.979919,55.570591
z"/>
<path fill="#FDFDFE" opacity="1.000000" stroke="none"
	d="
M340.376312,55.690361
	C358.414764,61.126900 376.038696,66.505707 393.724579,71.672417
	C395.670715,72.240952 398.493256,72.394829 400.032166,71.393272
	C437.055664,47.297840 478.105255,38.455040 521.638916,39.144337
	C544.504395,39.506378 567.121094,42.234913 589.426636,47.417847
	C591.259766,47.843800 593.439087,47.900654 595.203979,47.336250
	C645.625244,31.211613 697.160156,25.104177 749.932739,29.865490
	C802.787537,34.634212 851.150330,51.397228 893.706970,83.676903
	C912.002625,97.554298 928.135254,113.638275 942.112610,131.825134
	C952.918335,145.885254 957.007385,162.518555 958.937134,179.702866
	C963.110474,216.866074 958.840088,253.562286 951.402588,289.902618
	C928.297485,402.796478 883.263611,506.659180 821.358032,603.495422
	C820.563660,604.737976 819.842041,606.027039 818.991516,607.453491
	C829.103455,613.839172 840.283752,615.377991 851.615601,615.950867
	C876.095215,617.188354 900.024475,612.967346 923.996460,608.702393
	C931.876465,607.300415 940.361755,606.820068 948.190613,608.151367
	C962.464233,610.578552 968.887390,623.976685 963.386292,637.522766
	C959.102722,648.070618 951.039490,655.622131 942.530701,662.623108
	C913.454590,686.546936 879.916443,699.772522 842.636169,704.144348
	C822.710327,706.480957 802.815674,707.758118 782.855286,705.007385
	C777.771301,704.306763 772.757751,703.094971 767.312561,702.040771
	C765.878357,714.388550 764.670105,726.748108 762.975159,739.040466
	C756.087585,788.990051 749.292419,838.954834 741.919250,888.833557
	C739.753235,903.486206 734.543701,917.440491 727.662598,930.662537
	C714.577759,955.804932 693.883667,972.280640 667.946655,982.508972
	C648.377136,990.226196 628.126221,995.417053 607.080872,997.213379
	C560.324951,1001.204468 525.423279,981.252258 503.792816,939.158508
	C493.035767,918.224731 489.124634,895.877502 486.998749,872.914612
	C482.245941,821.576904 481.695557,770.102295 481.913666,718.601624
	C481.919708,717.169128 481.914398,715.736694 481.914398,713.525879
	C477.832672,716.725037 474.444611,719.553772 470.883301,722.144409
	C442.136322,743.055481 409.668335,749.643311 374.881134,746.457092
	C357.111816,744.829590 339.503540,741.856506 323.627289,733.021606
	C318.312347,730.064026 313.087677,726.484985 308.816559,722.198792
	C297.070618,710.411438 298.485138,694.686340 311.805695,684.632385
	C321.193542,677.546631 332.365784,674.777039 343.522736,671.998352
	C356.411255,668.788452 369.312500,665.608765 382.110291,662.062439
	C390.541595,659.726074 397.204620,654.519775 402.613037,647.674500
	C407.730835,641.197083 412.901703,634.761597 418.784454,627.385803
	C397.833069,626.489258 379.040222,621.665161 361.041656,612.011414
	C353.452515,620.242859 345.629700,628.392334 338.181427,636.870789
	C317.841095,660.024658 297.744873,683.393188 277.377869,706.523438
	C266.972107,718.341003 254.680099,727.705933 239.159470,731.674011
	C218.847122,736.867126 201.062958,730.739075 185.017441,718.292175
	C167.193375,704.465698 154.427109,686.406067 143.108368,667.257202
	C122.808411,632.914185 108.103271,596.056641 95.042404,558.508606
	C73.494202,496.560791 56.933563,433.240448 44.137653,368.957184
	C39.139591,343.848206 34.818203,318.548676 31.600439,293.157013
	C28.408449,267.968750 29.424694,242.564392 32.253693,217.326569
	C35.119930,191.756516 40.896858,166.901718 51.613556,143.348358
	C73.889259,94.390350 111.682381,63.953720 163.174744,49.989864
	C199.391891,40.168385 236.268967,39.147198 273.209747,43.869061
	C295.599243,46.730942 317.731873,51.602119 340.376312,55.690361
M461.015778,287.472412
	C474.174530,298.239288 482.646118,312.234711 485.782013,328.622528
	C490.404144,352.777161 494.696289,377.099243 497.107330,401.549347
	C501.197876,443.030701 496.582764,483.625275 480.357880,522.513550
	C471.140869,544.604980 462.377716,566.887390 453.584015,589.152466
	C451.612762,594.143494 450.368256,599.421570 448.678101,604.929565
	C450.100281,604.929565 450.752350,605.003174 451.383240,604.918823
	C467.826630,602.718628 481.725372,608.401672 493.074677,619.761536
	C506.990295,633.690125 511.858185,650.764709 511.407532,670.624817
	C509.857452,738.934326 509.474121,807.261658 516.023560,875.411377
	C517.903320,894.971008 522.117310,913.715210 531.982361,931.071960
	C546.369568,956.385010 567.523254,969.813477 596.834778,968.961487
	C623.000122,968.200928 647.822021,961.628174 670.952209,949.292725
	C686.649658,940.921143 698.108582,928.280029 704.775635,911.848206
	C708.631714,902.344421 712.049133,892.442200 713.910706,882.394531
	C718.031860,860.151672 721.391357,837.750488 724.427612,815.328064
	C728.604980,784.479492 732.528442,753.588013 735.929077,722.645569
	C738.455383,699.658142 739.655273,676.527039 742.036255,653.521057
	C744.524658,629.477844 756.546326,612.498352 780.319031,605.014343
	C781.353394,604.688782 782.316223,604.135925 783.701172,603.514465
	C780.606079,599.536987 777.799561,595.832581 774.890991,592.210022
	C764.223999,578.924744 754.689636,564.940186 747.525818,549.397278
	C744.117371,542.002075 740.481079,534.689758 736.537109,527.567383
	C716.459961,491.310608 696.336487,455.068848 682.454773,415.836121
	C673.078064,389.335327 665.624329,362.413422 668.997803,333.812958
	C672.048401,307.950409 684.638428,288.501831 708.408936,277.043457
	C727.837036,267.678375 748.682434,266.043518 769.835815,266.603119
	C776.205078,266.771606 782.566162,267.249115 789.502686,267.615234
	C788.585938,265.100922 787.937256,263.238373 787.231140,261.397858
	C774.894592,229.243454 757.474548,200.021744 735.666443,173.468079
	C680.295532,106.048019 609.402527,69.874023 521.694641,67.904320
	C489.229645,67.175247 458.013611,72.414047 428.979431,87.701797
	C395.781860,105.181740 372.430054,132.169052 355.318604,164.940689
	C336.835419,200.339539 327.113403,238.401993 321.973267,277.776398
	C321.149048,284.089783 320.559845,290.433899 319.770874,297.590485
	C322.208984,296.368134 323.671478,295.649963 325.120789,294.906128
	C349.322693,282.484222 374.604584,273.561340 401.961823,271.628357
	C423.166443,270.130127 443.127991,273.654999 461.015778,287.472412
M68.588211,180.149765
	C58.693687,215.068161 56.496902,250.798508 59.998222,286.611664
	C62.502087,312.222382 67.098526,337.713226 72.184464,362.970947
	C87.341537,438.243774 106.971756,512.312317 135.050552,583.920837
	C147.343719,615.271729 161.284988,645.854004 181.350967,673.186707
	C189.273087,683.977722 198.146240,693.889099 210.045883,700.591248
	C220.805130,706.651062 231.665619,706.587341 241.593094,699.516724
	C248.433212,694.644958 254.720764,688.725403 260.334137,682.450134
	C284.549194,655.380005 308.423676,628.005249 332.424774,600.743713
	C333.924683,599.040100 335.447632,597.356750 336.992218,595.627686
	C336.171844,594.860229 335.688660,594.404968 335.201935,593.953430
	C298.986572,560.359436 283.226868,518.779114 286.772705,469.701080
	C288.487976,445.960266 291.215698,422.251190 291.834381,398.484772
	C292.396973,376.872223 290.496704,355.205841 290.087280,333.555511
	C289.342682,294.182251 294.510345,255.513046 304.695496,217.493668
	C314.786713,179.824966 330.051025,144.616592 354.374878,113.790985
	C359.605225,107.162552 365.414734,100.991142 371.395569,94.104736
	C361.006622,91.113914 351.059326,87.967163 340.965973,85.393005
	C294.713257,73.596878 247.996811,66.305092 200.081696,71.977547
	C173.648376,75.106857 148.583908,82.425018 126.144791,97.239082
	C96.186356,117.017319 78.684921,145.544708 68.588211,180.149765
M819.183960,470.214752
	C822.024780,504.970734 817.589844,538.381653 800.091003,569.144104
	C797.292969,574.062988 798.031250,576.915283 802.426086,579.819214
	C803.026367,578.921082 803.600403,578.118958 804.116821,577.281372
	C863.527710,480.931549 906.938538,378.238861 926.544678,266.266998
	C931.580322,237.507904 934.200439,208.445312 929.963623,179.243225
	C928.378235,168.315948 925.956360,157.541031 918.904724,148.610901
	C876.908386,95.427307 821.318054,67.031120 754.688293,59.060673
	C721.547974,55.096340 688.516541,56.631889 655.632751,62.035992
	C651.384949,62.734077 647.172241,63.645096 641.508301,64.733131
	C644.189148,66.044685 645.363525,66.621056 646.539490,67.194290
	C729.356079,107.564735 783.943787,173.117035 816.444336,258.184937
	C819.314026,265.696075 821.465210,273.923462 821.747192,281.896088
	C822.502136,303.236908 819.972290,324.428040 816.495667,345.502441
	C812.606628,369.076874 810.707642,392.725372 813.681030,416.629669
	C815.858337,434.134766 817.340332,451.726349 819.183960,470.214752
M442.263855,309.161224
	C433.953430,302.927887 424.371552,300.206451 414.217041,300.128571
	C379.866852,299.865112 349.522522,312.083099 321.452423,330.861908
	C320.053619,331.797699 319.011444,334.384766 319.054016,336.173187
	C319.307739,346.825989 319.943024,357.469452 320.425415,368.117188
	C321.732117,396.959778 320.873566,425.748138 317.222931,454.381195
	C314.614136,474.842773 313.470306,495.097168 318.997192,515.310852
	C331.687866,561.725098 370.888000,596.349548 416.333557,598.541992
	C419.167389,598.678711 420.873016,598.550598 421.790558,595.278198
	C428.898865,569.926575 438.586365,545.528137 449.602448,521.648682
	C463.715332,491.056396 470.314301,458.887878 469.794464,425.267792
	C469.324280,394.861267 465.045135,364.913361 458.054260,335.353027
	C455.668457,325.264984 451.047180,316.329285 442.263855,309.161224
M789.774536,459.857025
	C788.987732,453.246796 787.972534,446.654327 787.458130,440.022949
	C786.069214,422.115784 783.272888,404.122650 784.036438,386.292175
	C785.030029,363.088623 788.963379,340.014069 791.530090,316.872742
	C792.253967,310.346222 792.622864,303.780304 793.149536,297.294678
	C768.574402,294.086395 751.168396,294.345978 734.644531,298.037140
	C712.159058,303.060059 700.396606,315.165253 697.415710,337.282684
	C695.639282,350.463409 697.566589,363.522888 700.568542,376.402771
	C707.680725,406.917480 720.263184,435.332886 734.424316,463.066589
	C748.411621,490.459900 762.934204,517.579956 777.240051,544.810364
	C777.648438,545.587708 778.263184,546.256592 778.781799,546.976074
	C779.348022,547.006226 779.914246,547.036316 780.480469,547.066467
	C783.325439,536.730469 786.755188,526.513367 788.885986,516.032104
	C792.604065,497.744171 791.349365,479.230194 789.774536,459.857025
M467.420319,635.892517
	C456.832520,631.316772 453.603790,631.774170 445.973694,640.332703
	C439.331665,647.782959 432.904999,655.459106 426.852814,663.393677
	C416.363739,677.145020 402.863983,686.330627 386.316986,690.941040
	C375.599976,693.927002 364.718109,696.317261 353.932587,699.062866
	C347.037628,700.818176 340.183716,702.734741 333.311401,704.579041
	C333.318939,705.197754 333.326477,705.816467 333.334015,706.435120
	C338.859009,708.627258 344.213043,711.629150 349.945343,712.839172
	C361.135956,715.201538 372.481903,717.469238 383.862671,718.173401
	C423.846558,720.647278 455.884521,705.558777 479.403412,672.954712
	C480.798096,671.021240 481.794281,668.486511 482.084167,666.122253
	C483.654877,653.309814 478.461273,643.507507 467.420319,635.892517
M834.629028,642.946899
	C822.899170,640.852417 811.669983,637.475586 801.843384,630.381775
	C801.009888,629.780090 799.731934,629.344421 798.743958,629.473083
	C780.134521,631.896423 771.020142,641.627991 770.028137,659.996765
	C769.326233,672.994202 770.043701,673.828430 783.183044,676.077698
	C803.639832,679.579590 823.985168,677.791565 844.331055,674.985901
	C873.849731,670.915466 900.399109,659.953125 923.583557,641.100220
	C924.931885,640.003845 926.205505,638.815674 928.215881,637.055481
	C918.662781,638.675659 910.182861,640.311951 901.642578,641.523438
	C879.664551,644.641235 857.638367,646.604797 834.629028,642.946899
z"/>
<path fill="#336791" opacity="1.000000" stroke="none"
	d="
M460.738037,287.246033
	C443.127991,273.654999 423.166443,270.130127 401.961823,271.628357
	C374.604584,273.561340 349.322693,282.484222 325.120789,294.906128
	C323.671478,295.649963 322.208984,296.368134 319.770874,297.590485
	C320.559845,290.433899 321.149048,284.089783 321.973267,277.776398
	C327.113403,238.401993 336.835419,200.339539 355.318604,164.940689
	C372.430054,132.169052 395.781860,105.181740 428.979431,87.701797
	C458.013611,72.414047 489.229645,67.175247 521.694641,67.904320
	C609.402527,69.874023 680.295532,106.048019 735.666443,173.468079
	C757.474548,200.021744 774.894592,229.243454 787.231140,261.397858
	C787.937256,263.238373 788.585938,265.100922 789.502686,267.615234
	C782.566162,267.249115 776.205078,266.771606 769.835815,266.603119
	C748.682434,266.043518 727.837036,267.678375 708.408936,277.043457
	C684.638428,288.501831 672.048401,307.950409 668.997803,333.812958
	C665.624329,362.413422 673.078064,389.335327 682.454773,415.836121
	C696.336487,455.068848 716.459961,491.310608 736.537109,527.567383
	C740.481079,534.689758 744.117371,542.002075 747.525818,549.397278
	C754.689636,564.940186 764.223999,578.924744 774.890991,592.210022
	C777.799561,595.832581 780.606079,599.536987 783.701172,603.514465
	C782.316223,604.135925 781.353394,604.688782 780.319031,605.014343
	C756.546326,612.498352 744.524658,629.477844 742.036255,653.521057
	C739.655273,676.527039 738.455383,699.658142 735.929077,722.645569
	C732.528442,753.588013 728.604980,784.479492 724.427612,815.328064
	C721.391357,837.750488 718.031860,860.151672 713.910706,882.394531
	C712.049133,892.442200 708.631714,902.344421 704.775635,911.848206
	C698.108582,928.280029 686.649658,940.921143 670.952209,949.292725
	C647.822021,961.628174 623.000122,968.200928 596.834778,968.961487
	C567.523254,969.813477 546.369568,956.385010 531.982361,931.071960
	C522.117310,913.715210 517.903320,894.971008 516.023560,875.411377
	C509.474121,807.261658 509.857452,738.934326 511.407532,670.624817
	C511.858185,650.764709 506.990295,633.690125 493.074677,619.761536
	C481.725372,608.401672 467.826630,602.718628 451.383240,604.918823
	C450.752350,605.003174 450.100281,604.929565 448.678101,604.929565
	C450.368256,599.421570 451.612762,594.143494 453.584015,589.152466
	C462.377716,566.887390 471.140869,544.604980 480.357880,522.513550
	C496.582764,483.625275 501.197876,443.030701 497.107330,401.549347
	C494.696289,377.099243 490.404144,352.777161 485.782013,328.622528
	C482.646118,312.234711 474.174530,298.239288 460.738037,287.246033
z"/>
<path fill="#336791" opacity="1.000000" stroke="none"
	d="
M68.707031,179.763718
	C78.684921,145.544708 96.186356,117.017319 126.144791,97.239082
	C148.583908,82.425018 173.648376,75.106857 200.081696,71.977547
	C247.996811,66.305092 294.713257,73.596878 340.965973,85.393005
	C351.059326,87.967163 361.006622,91.113914 371.395569,94.104736
	C365.414734,100.991142 359.605225,107.162552 354.374878,113.790985
	C330.051025,144.616592 314.786713,179.824966 304.695496,217.493668
	C294.510345,255.513046 289.342682,294.182251 290.087280,333.555511
	C290.496704,355.205841 292.396973,376.872223 291.834381,398.484772
	C291.215698,422.251190 288.487976,445.960266 286.772705,469.701080
	C283.226868,518.779114 298.986572,560.359436 335.201935,593.953430
	C335.688660,594.404968 336.171844,594.860229 336.992218,595.627686
	C335.447632,597.356750 333.924683,599.040100 332.424774,600.743713
	C308.423676,628.005249 284.549194,655.380005 260.334137,682.450134
	C254.720764,688.725403 248.433212,694.644958 241.593094,699.516724
	C231.665619,706.587341 220.805130,706.651062 210.045883,700.591248
	C198.146240,693.889099 189.273087,683.977722 181.350967,673.186707
	C161.284988,645.854004 147.343719,615.271729 135.050552,583.920837
	C106.971756,512.312317 87.341537,438.243774 72.184464,362.970947
	C67.098526,337.713226 62.502087,312.222382 59.998222,286.611664
	C56.496902,250.798508 58.693687,215.068161 68.707031,179.763718
z"/>
<path fill="#346791" opacity="1.000000" stroke="none"
	d="
M819.158081,469.747070
	C817.340332,451.726349 815.858337,434.134766 813.681030,416.629669
	C810.707642,392.725372 812.606628,369.076874 816.495667,345.502441
	C819.972290,324.428040 822.502136,303.236908 821.747192,281.896088
	C821.465210,273.923462 819.314026,265.696075 816.444336,258.184937
	C783.943787,173.117035 729.356079,107.564735 646.539490,67.194290
	C645.363525,66.621056 644.189148,66.044685 641.508301,64.733131
	C647.172241,63.645096 651.384949,62.734077 655.632751,62.035992
	C688.516541,56.631889 721.547974,55.096340 754.688293,59.060673
	C821.318054,67.031120 876.908386,95.427307 918.904724,148.610901
	C925.956360,157.541031 928.378235,168.315948 929.963623,179.243225
	C934.200439,208.445312 931.580322,237.507904 926.544678,266.266998
	C906.938538,378.238861 863.527710,480.931549 804.116821,577.281372
	C803.600403,578.118958 803.026367,578.921082 802.426086,579.819214
	C798.031250,576.915283 797.292969,574.062988 800.091003,569.144104
	C817.589844,538.381653 822.024780,504.970734 819.158081,469.747070
z"/>
<path fill="#346791" opacity="1.000000" stroke="none"
	d="
M442.545898,309.384460
	C451.047180,316.329285 455.668457,325.264984 458.054260,335.353027
	C465.045135,364.913361 469.324280,394.861267 469.794464,425.267792
	C470.314301,458.887878 463.715332,491.056396 449.602448,521.648682
	C438.586365,545.528137 428.898865,569.926575 421.790558,595.278198
	C420.873016,598.550598 419.167389,598.678711 416.333557,598.541992
	C370.888000,596.349548 331.687866,561.725098 318.997192,515.310852
	C313.470306,495.097168 314.614136,474.842773 317.222931,454.381195
	C320.873566,425.748138 321.732117,396.959778 320.425415,368.117188
	C319.943024,357.469452 319.307739,346.825989 319.054016,336.173187
	C319.011444,334.384766 320.053619,331.797699 321.452423,330.861908
	C349.522522,312.083099 379.866852,299.865112 414.217041,300.128571
	C424.371552,300.206451 433.953430,302.927887 442.545898,309.384460
M400.913635,341.598999
	C414.168304,353.794128 432.082031,353.078308 442.634216,339.931824
	C447.445190,333.938049 447.316132,328.125183 441.185028,324.005005
	C428.474030,315.463104 414.412415,313.536407 399.857056,318.263947
	C392.994720,320.492828 391.024628,326.273193 394.306763,332.689240
	C395.865204,335.735657 398.332245,338.317261 400.913635,341.598999
z"/>
<path fill="#346892" opacity="1.000000" stroke="none"
	d="
M789.815308,460.316345
	C791.349365,479.230194 792.604065,497.744171 788.885986,516.032104
	C786.755188,526.513367 783.325439,536.730469 780.480469,547.066467
	C779.914246,547.036316 779.348022,547.006226 778.781799,546.976074
	C778.263184,546.256592 777.648438,545.587708 777.240051,544.810364
	C762.934204,517.579956 748.411621,490.459900 734.424316,463.066589
	C720.263184,435.332886 707.680725,406.917480 700.568542,376.402771
	C697.566589,363.522888 695.639282,350.463409 697.415710,337.282684
	C700.396606,315.165253 712.159058,303.060059 734.644531,298.037140
	C751.168396,294.345978 768.574402,294.086395 793.149536,297.294678
	C792.622864,303.780304 792.253967,310.346222 791.530090,316.872742
	C788.963379,340.014069 785.030029,363.088623 784.036438,386.292175
	C783.272888,404.122650 786.069214,422.115784 787.458130,440.022949
	C787.972534,446.654327 788.987732,453.246796 789.815308,460.316345
M741.305847,338.476715
	C752.398865,337.484436 760.208069,331.618256 765.140564,321.909546
	C767.715271,316.841583 766.378845,312.826965 761.054443,311.077209
	C747.121155,306.498260 733.749695,308.372131 721.568237,316.537659
	C717.092346,319.537903 716.808655,323.384674 720.024170,327.781738
	C725.054504,334.660400 732.014587,338.097290 741.305847,338.476715
z"/>
<path fill="#356892" opacity="1.000000" stroke="none"
	d="
M467.764587,636.038696
	C478.461273,643.507507 483.654877,653.309814 482.084167,666.122253
	C481.794281,668.486511 480.798096,671.021240 479.403412,672.954712
	C455.884521,705.558777 423.846558,720.647278 383.862671,718.173401
	C372.481903,717.469238 361.135956,715.201538 349.945343,712.839172
	C344.213043,711.629150 338.859009,708.627258 333.334015,706.435120
	C333.326477,705.816467 333.318939,705.197754 333.311401,704.579041
	C340.183716,702.734741 347.037628,700.818176 353.932587,699.062866
	C364.718109,696.317261 375.599976,693.927002 386.316986,690.941040
	C402.863983,686.330627 416.363739,677.145020 426.852814,663.393677
	C432.904999,655.459106 439.331665,647.782959 445.973694,640.332703
	C453.603790,631.774170 456.832520,631.316772 467.764587,636.038696
z"/>
<path fill="#356892" opacity="1.000000" stroke="none"
	d="
M835.063599,642.988281
	C857.638367,646.604797 879.664551,644.641235 901.642578,641.523438
	C910.182861,640.311951 918.662781,638.675659 928.215881,637.055481
	C926.205505,638.815674 924.931885,640.003845 923.583557,641.100220
	C900.399109,659.953125 873.849731,670.915466 844.331055,674.985901
	C823.985168,677.791565 803.639832,679.579590 783.183044,676.077698
	C770.043701,673.828430 769.326233,672.994202 770.028137,659.996765
	C771.020142,641.627991 780.134521,631.896423 798.743958,629.473083
	C799.731934,629.344421 801.009888,629.780090 801.843384,630.381775
	C811.669983,637.475586 822.899170,640.852417 835.063599,642.988281
z"/>
<path fill="#FDFDFE" opacity="1.000000" stroke="none"
	d="
M400.650665,341.354187
	C398.332245,338.317261 395.865204,335.735657 394.306763,332.689240
	C391.024628,326.273193 392.994720,320.492828 399.857056,318.263947
	C414.412415,313.536407 428.474030,315.463104 441.185028,324.005005
	C447.316132,328.125183 447.445190,333.938049 442.634216,339.931824
	C432.082031,353.078308 414.168304,353.794128 400.650665,341.354187
z"/>
<path fill="#FCFDFE" opacity="1.000000" stroke="none"
	d="
M740.902649,338.488556
	C732.014587,338.097290 725.054504,334.660400 720.024170,327.781738
	C716.808655,323.384674 717.092346,319.537903 721.568237,316.537659
	C733.749695,308.372131 747.121155,306.498260 761.054443,311.077209
	C766.378845,312.826965 767.715271,316.841583 765.140564,321.909546
	C760.208069,331.618256 752.398865,337.484436 740.902649,338.488556
z"/>
</svg>
