<svg version="1.1" id="Layer_1" xmlns="http://www.w3.org/2000/svg" xmlns:xlink="http://www.w3.org/1999/xlink" x="0px" y="0px"
	 width="100%" viewBox="0 0 500 500" enable-background="new 0 0 500 500" xml:space="preserve">
<path fill="#ffffff" opacity="0" stroke="none"
	d="
M218.000000,501.000000
	C145.333344,501.000000 73.166702,501.000000 1.000039,501.000000
	C1.000026,334.333405 1.000026,167.666779 1.000013,1.000128
	C167.666565,1.000085 334.333130,1.000085 500.999756,1.000043
	C500.999847,167.666534 500.999847,334.333069 500.999939,500.999817
	C406.833344,501.000000 312.666656,501.000000 218.000000,501.000000
M251.515320,373.705078
	C251.755310,383.775940 251.995300,393.846771 252.164261,404.781189
	C252.294693,406.496948 252.425110,408.212708 252.471878,410.479980
	C252.715073,410.962097 252.958252,411.444183 253.307846,412.587036
	C254.028076,413.671295 254.748306,414.755524 255.726730,416.403992
	C256.875885,417.254791 258.025024,418.105591 259.450989,419.467224
	C259.975922,419.672394 260.500854,419.877563 261.288727,420.425110
	C261.288727,420.425110 261.693848,420.574158 261.693848,420.574158
	C261.693848,420.574158 262.113770,420.474060 262.523254,420.986176
	C263.349030,421.143707 264.174774,421.301239 265.775970,421.695160
	C266.847778,421.647827 267.919556,421.600494 269.536377,421.681641
	C270.036438,421.486755 270.536499,421.291840 271.745850,421.015106
	C274.134094,419.217896 276.522339,417.420654 279.328430,415.135223
	C282.009521,411.793030 284.719879,408.473785 287.366180,405.104279
	C295.241425,395.076782 303.091583,385.029602 311.433990,374.770935
	C311.612244,374.474365 311.790466,374.177826 312.454773,373.689087
	C312.833496,373.124359 313.212219,372.559662 314.124603,371.514038
	C316.174469,368.746735 318.152954,365.923004 320.287140,363.222351
	C327.490570,354.107056 334.749237,345.035431 342.583527,335.655182
	C353.488861,322.004852 364.409485,308.366699 375.295349,294.700867
	C386.656525,280.438385 397.823059,266.016907 409.393036,251.926315
	C415.361389,244.657654 417.776093,236.650513 416.863159,227.448685
	C415.674103,215.463501 404.787506,203.894852 393.246674,203.036835
	C392.185486,203.003403 391.124268,202.969955 389.670563,202.272842
	C385.117615,202.180130 380.564667,202.087433 375.205261,201.749374
	C373.812408,201.822601 372.419556,201.895828 370.260132,201.690399
	C361.522339,201.794754 352.784515,201.899109 343.196228,201.738388
	C341.131256,201.815781 339.066284,201.893158 336.105957,201.699493
	C331.094818,201.781479 326.083649,201.863464 320.163696,201.669159
	C313.130798,201.730423 306.097870,201.791687 298.160828,201.566162
	C292.052795,201.503189 285.944366,201.464233 279.836792,201.371826
	C269.943573,201.222153 260.050903,201.037384 250.159973,199.948059
	C250.113037,194.288620 250.066101,188.629196 250.312775,182.239456
	C250.178589,178.506729 250.044403,174.773987 249.876297,170.099274
	C249.740509,145.777481 249.660934,121.455193 249.439362,97.134186
	C249.358383,88.243652 245.977005,83.267975 238.909775,80.851189
	C232.406784,78.627365 226.604141,80.860962 221.188248,87.672485
	C193.644180,122.314468 166.102493,156.958328 138.555099,191.597702
	C122.912758,211.267075 107.261856,230.929672 91.613426,250.594208
	C78.314667,267.306091 83.703705,289.615387 103.279564,298.291962
	C103.279564,298.291962 103.689041,298.505371 103.689041,298.505371
	C103.689041,298.505371 104.140060,298.406250 104.839806,298.687622
	C106.556084,299.030762 108.272354,299.373901 110.780701,299.985229
	C113.428017,300.179993 116.075195,300.542358 118.722664,300.544434
	C159.884857,300.577087 201.047104,300.546600 242.209305,300.572754
	C251.255386,300.578491 250.237732,299.809418 250.470764,308.513885
	C250.661850,315.651459 250.951614,322.786438 251.135117,330.867584
	C251.335129,342.579010 251.535126,354.290405 251.510834,366.748993
	C251.601242,368.807953 251.691666,370.866882 251.515320,373.705078
z"/>
<path fill="#3ECE8D" opacity="1.000000" stroke="none"
	d="
M250.019165,182.969757
	C250.066101,188.629196 250.113037,194.288620 250.078430,200.877808
	C250.179520,216.149979 250.362183,230.492416 250.437851,245.309250
	C250.407669,253.500900 250.484482,261.218170 250.483368,269.401733
	C250.342682,277.177826 250.265854,284.487488 250.221176,291.797394
	C250.177185,298.994873 250.107178,299.112732 243.041336,299.114685
	C200.991852,299.126312 158.942352,299.112732 116.892906,299.148499
	C114.591324,299.150452 112.290047,299.519073 109.988632,299.717010
	C108.272354,299.373901 106.556084,299.030762 104.475616,298.389130
	C103.754745,298.025818 103.398056,297.960968 103.041374,297.896149
	C83.703705,289.615387 78.314667,267.306091 91.613426,250.594208
	C107.261856,230.929672 122.912758,211.267075 138.555099,191.597702
	C166.102493,156.958328 193.644180,122.314468 221.188248,87.672485
	C226.604141,80.860962 232.406784,78.627365 238.909775,80.851189
	C245.977005,83.267975 249.358383,88.243652 249.439362,97.134186
	C249.660934,121.455193 249.740509,145.777481 249.745514,170.935242
	C249.749542,175.504074 249.884354,179.236908 250.019165,182.969757
z"/>
<path fill="#34B87E" opacity="1.000000" stroke="none"
	d="
M259.174194,418.956390
	C258.025024,418.105591 256.875885,417.254791 255.870117,415.973511
	C257.388824,413.936096 259.152405,412.522217 260.065552,410.685547
	C262.646271,405.494751 265.014832,400.186768 267.221313,394.823883
	C273.033447,380.697327 278.515900,366.432037 284.508575,352.383667
	C289.902405,339.739197 296.024353,327.405243 301.410583,314.757782
	C306.861877,301.957581 311.682892,288.890472 317.002594,276.032349
	C322.841370,261.919464 328.778961,247.842239 335.014221,233.901871
	C336.814972,229.875839 339.660675,226.282364 342.259583,222.657059
	C345.445282,218.213196 350.288666,214.398270 351.864594,209.492081
	C354.176636,202.294373 358.447815,201.347260 364.552582,202.098846
	C366.035370,202.281387 367.533447,202.340073 368.976196,202.792297
	C368.515259,204.211243 368.374634,205.541443 367.648651,206.338379
	C358.460907,216.423904 354.070343,228.832306 349.444153,241.381012
	C343.763428,256.790314 336.699707,271.694305 330.099792,286.758026
	C327.301697,293.144379 323.832428,299.250000 321.259369,305.718384
	C317.773804,314.480743 315.268646,323.643585 311.597504,332.319153
	C306.288055,344.866333 300.197205,357.080444 294.655090,369.532471
	C290.416290,379.056396 286.144806,388.596222 282.601166,398.387146
	C280.620117,403.860809 280.092926,409.860687 278.910583,415.623444
	C276.522339,417.420654 274.134094,419.217896 271.219940,420.926331
	C270.126465,421.076111 269.558929,421.314636 268.991364,421.553162
	C267.919556,421.600494 266.847778,421.647827 265.169678,421.343872
	C263.746826,420.819733 262.930298,420.646912 262.113770,420.474060
	C262.113770,420.474060 261.693848,420.574158 261.693848,420.574158
	C261.693848,420.574158 261.288727,420.425110 260.961121,420.060059
	C260.147095,419.448822 259.660645,419.202606 259.174194,418.956390
z"/>
<path fill="#36BD82" opacity="1.000000" stroke="none"
	d="
M279.119507,415.379333
	C280.092926,409.860687 280.620117,403.860809 282.601166,398.387146
	C286.144806,388.596222 290.416290,379.056396 294.655090,369.532471
	C300.197205,357.080444 306.288055,344.866333 311.597504,332.319153
	C315.268646,323.643585 317.773804,314.480743 321.259369,305.718384
	C323.832428,299.250000 327.301697,293.144379 330.099792,286.758026
	C336.699707,271.694305 343.763428,256.790314 349.444153,241.381012
	C354.070343,228.832306 358.460907,216.423904 367.648651,206.338379
	C368.374634,205.541443 368.515259,204.211243 369.310425,202.711014
	C370.137512,202.185120 370.582123,202.077103 371.026703,201.969070
	C372.419556,201.895828 373.812408,201.822601 375.791138,202.164322
	C377.259979,202.815338 378.142944,203.051422 379.016296,203.671463
	C377.657562,207.756805 376.380249,211.486282 374.945007,215.153961
	C371.488281,223.987396 368.161530,232.879669 364.412415,241.588943
	C357.598053,257.418793 350.385925,273.077606 343.596375,288.917755
	C340.003418,297.300201 337.010071,305.937866 333.626770,314.412720
	C332.090881,318.260010 330.204742,321.965881 328.583130,325.780853
	C324.773743,334.742615 321.031891,343.733063 317.252808,352.707764
	C316.609161,354.236298 315.830414,355.712708 315.262177,357.267303
	C313.611633,361.782837 311.914825,366.288788 310.513550,370.883118
	C310.143951,372.094849 310.778229,373.612762 310.951508,374.990082
	C303.091583,385.029602 295.241425,395.076782 287.366180,405.104279
	C284.719879,408.473785 282.009521,411.793030 279.119507,415.379333
z"/>
<path fill="#2BA36D" opacity="1.000000" stroke="none"
	d="
M321.072510,201.945450
	C326.083649,201.863464 331.094818,201.781479 336.534912,202.158234
	C332.488861,209.729599 328.326965,217.065994 323.449310,223.890808
	C318.738953,230.481461 313.103241,236.404266 308.238953,242.893951
	C305.472382,246.584961 302.274719,250.556335 301.282562,254.864670
	C297.810547,269.941559 287.388550,281.939606 283.694550,296.978424
	C281.507874,305.880646 276.809631,314.165070 273.250031,322.731140
	C267.899384,335.607300 262.684326,348.542847 257.076721,361.306000
	C256.212219,363.273712 253.560364,364.456207 251.735123,366.001831
	C251.535126,354.290405 251.335129,342.579010 251.330902,330.039490
	C252.036224,326.141815 252.045547,322.875488 253.159180,320.043457
	C255.497238,314.097809 258.848816,308.536072 261.005280,302.536682
	C265.421692,290.250031 269.874390,277.989990 276.562531,266.734985
	C280.523224,260.069733 284.836243,253.585434 289.383942,247.304382
	C295.682190,238.605560 302.574005,230.333191 308.784515,221.575302
	C313.242523,215.288742 317.001617,208.506531 321.072510,201.945450
z"/>
<path fill="#31B078" opacity="1.000000" stroke="none"
	d="
M370.643433,201.829742
	C370.582123,202.077103 370.137512,202.185120 369.358704,202.374420
	C367.533447,202.340073 366.035370,202.281387 364.552582,202.098846
	C358.447815,201.347260 354.176636,202.294373 351.864594,209.492081
	C350.288666,214.398270 345.445282,218.213196 342.259583,222.657059
	C339.660675,226.282364 336.814972,229.875839 335.014221,233.901871
	C328.778961,247.842239 322.841370,261.919464 317.002594,276.032349
	C311.682892,288.890472 306.861877,301.957581 301.410583,314.757782
	C296.024353,327.405243 289.902405,339.739197 284.508575,352.383667
	C278.515900,366.432037 273.033447,380.697327 267.221313,394.823883
	C265.014832,400.186768 262.646271,405.494751 260.065552,410.685547
	C259.152405,412.522217 257.388824,413.936096 255.741028,415.691406
	C254.748306,414.755524 254.028076,413.671295 253.350830,412.077209
	C253.114395,411.021088 252.834961,410.474792 252.555527,409.928467
	C252.425110,408.212708 252.294693,406.496948 252.370270,403.984680
	C252.734314,398.462372 252.892365,393.736572 253.426926,388.992706
	C257.756012,388.955719 258.395752,385.865082 259.482758,383.032623
	C264.299011,370.482849 269.110565,357.929749 274.116547,345.455200
	C275.961517,340.857666 278.547150,336.559265 280.429047,331.974213
	C284.962555,320.928955 289.150421,309.741364 293.716278,298.709961
	C299.875214,283.829681 306.196075,269.015289 312.580048,254.229858
	C314.677002,249.373276 316.642731,244.319397 319.617126,240.010605
	C326.501526,230.037720 334.115845,220.570602 341.085480,210.653336
	C342.768250,208.258957 343.095886,204.912247 344.046692,202.003479
	C352.784515,201.899109 361.522339,201.794754 370.643433,201.829742
z"/>
<path fill="#3DCB8B" opacity="1.000000" stroke="none"
	d="
M394.026245,203.199921
	C404.787506,203.894852 415.674103,215.463501 416.863159,227.448685
	C417.776093,236.650513 415.361389,244.657654 409.393036,251.926315
	C397.823059,266.016907 386.656525,280.438385 375.295349,294.700867
	C364.409485,308.366699 353.488861,322.004852 342.292358,335.384155
	C343.173157,331.389893 343.922302,327.462646 345.600708,323.983765
	C349.718445,315.448669 354.836578,307.358185 358.464355,298.636353
	C361.583923,291.136292 363.126160,282.988037 365.529938,275.176910
	C366.143524,273.183075 367.354065,271.367584 368.333496,269.492706
	C371.692383,263.062927 375.363190,256.775696 378.349640,250.178146
	C380.794617,244.776840 378.859375,237.721313 384.525574,233.408401
	C384.921661,233.106918 384.703308,232.101151 384.977264,231.520279
	C387.603119,225.952148 389.743256,220.057953 393.084961,214.952560
	C396.226715,210.152557 397.142365,206.780167 394.026245,203.199921
z"/>
<path fill="#39C587" opacity="1.000000" stroke="none"
	d="
M393.636475,203.118378
	C397.142365,206.780167 396.226715,210.152557 393.084961,214.952560
	C389.743256,220.057953 387.603119,225.952148 384.977264,231.520279
	C384.703308,232.101151 384.921661,233.106918 384.525574,233.408401
	C378.859375,237.721313 380.794617,244.776840 378.349640,250.178146
	C375.363190,256.775696 371.692383,263.062927 368.333496,269.492706
	C367.354065,271.367584 366.143524,273.183075 365.529938,275.176910
	C363.126160,282.988037 361.583923,291.136292 358.464355,298.636353
	C354.836578,307.358185 349.718445,315.448669 345.600708,323.983765
	C343.922302,327.462646 343.173157,331.389893 341.994019,335.530121
	C334.749237,345.035431 327.490570,354.107056 320.287140,363.222351
	C318.152954,365.923004 316.174469,368.746735 313.626160,371.869659
	C312.741364,372.777283 312.355042,373.329285 311.968719,373.881256
	C311.790466,374.177826 311.612244,374.474365 311.192749,374.880493
	C310.778229,373.612762 310.143951,372.094849 310.513550,370.883118
	C311.914825,366.288788 313.611633,361.782837 315.262177,357.267303
	C315.830414,355.712708 316.609161,354.236298 317.252808,352.707764
	C321.031891,343.733063 324.773743,334.742615 328.583130,325.780853
	C330.204742,321.965881 332.090881,318.260010 333.626770,314.412720
	C337.010071,305.937866 340.003418,297.300201 343.596375,288.917755
	C350.385925,273.077606 357.598053,257.418793 364.412415,241.588943
	C368.161530,232.879669 371.488281,223.987396 374.945007,215.153961
	C376.380249,211.486282 377.657562,207.756805 379.473145,203.638092
	C383.314087,203.126022 386.688599,203.031265 390.063080,202.936523
	C391.124268,202.969955 392.185486,203.003403 393.636475,203.118378
z"/>
<path fill="#299766" opacity="1.000000" stroke="none"
	d="
M320.618103,201.807312
	C317.001617,208.506531 313.242523,215.288742 308.784515,221.575302
	C302.574005,230.333191 295.682190,238.605560 289.383942,247.304382
	C284.836243,253.585434 280.523224,260.069733 276.562531,266.734985
	C269.874390,277.989990 265.421692,290.250031 261.005280,302.536682
	C258.848816,308.536072 255.497238,314.097809 253.159180,320.043457
	C252.045547,322.875488 252.036224,326.141815 251.362152,329.566956
	C250.951614,322.786438 250.661850,315.651459 250.470764,308.513885
	C250.237732,299.809418 251.255386,300.578491 242.209305,300.572754
	C201.047104,300.546600 159.884857,300.577087 118.722664,300.544434
	C116.075195,300.542358 113.428017,300.179993 110.384666,299.851135
	C112.290047,299.519073 114.591324,299.150452 116.892906,299.148499
	C158.942352,299.112732 200.991852,299.126312 243.041336,299.114685
	C250.107178,299.112732 250.177185,298.994873 250.221176,291.797394
	C250.265854,284.487488 250.342682,277.177826 250.774429,269.340240
	C252.143860,267.776489 253.288528,266.844086 254.119553,265.686523
	C257.575623,260.872314 260.872925,255.943726 264.347992,251.143646
	C269.954895,243.398849 275.648834,235.716934 281.321533,228.019913
	C283.181549,225.496155 285.310181,223.141907 286.930481,220.475845
	C290.419403,214.735031 293.658142,208.842194 297.234802,202.949036
	C298.001862,202.541977 298.533417,202.197449 299.064972,201.852936
	C306.097870,201.791687 313.130798,201.730423 320.618103,201.807312
z"/>
<path fill="#2EAB73" opacity="1.000000" stroke="none"
	d="
M343.621460,201.870926
	C343.095886,204.912247 342.768250,208.258957 341.085480,210.653336
	C334.115845,220.570602 326.501526,230.037720 319.617126,240.010605
	C316.642731,244.319397 314.677002,249.373276 312.580048,254.229858
	C306.196075,269.015289 299.875214,283.829681 293.716278,298.709961
	C289.150421,309.741364 284.962555,320.928955 280.429047,331.974213
	C278.547150,336.559265 275.961517,340.857666 274.116547,345.455200
	C269.110565,357.929749 264.299011,370.482849 259.482758,383.032623
	C258.395752,385.865082 257.756012,388.955719 253.411575,388.525269
	C252.607178,383.025879 252.194641,377.975861 251.782089,372.925842
	C251.691666,370.866882 251.601242,368.807953 251.622986,366.375427
	C253.560364,364.456207 256.212219,363.273712 257.076721,361.306000
	C262.684326,348.542847 267.899384,335.607300 273.250031,322.731140
	C276.809631,314.165070 281.507874,305.880646 283.694550,296.978424
	C287.388550,281.939606 297.810547,269.941559 301.282562,254.864670
	C302.274719,250.556335 305.472382,246.584961 308.238953,242.893951
	C313.103241,236.404266 318.738953,230.481461 323.449310,223.890808
	C328.326965,217.065994 332.488861,209.729599 336.982605,202.293762
	C339.066284,201.893158 341.131256,201.815781 343.621460,201.870926
z"/>
<path fill="#217D53" opacity="1.000000" stroke="none"
	d="
M298.612915,201.709534
	C298.533417,202.197449 298.001862,202.541977 296.769104,202.941620
	C292.736938,203.006561 289.380463,202.777008 286.085876,203.128357
	C284.467072,203.301010 282.388123,204.136993 281.497253,205.376862
	C273.751434,216.156784 266.375275,227.204285 258.537811,237.915085
	C256.509491,240.687057 253.242722,242.552826 250.544830,244.834839
	C250.362183,230.492416 250.179520,216.149979 250.077438,201.337494
	C260.050903,201.037384 269.943573,201.222153 279.836792,201.371826
	C285.944366,201.464233 292.052795,201.503189 298.612915,201.709534
z"/>
<path fill="#299766" opacity="1.000000" stroke="none"
	d="
M251.648712,373.315460
	C252.194641,377.975861 252.607178,383.025879 253.035065,388.543335
	C252.892365,393.736572 252.734314,398.462372 252.405792,403.552917
	C251.995300,393.846771 251.755310,383.775940 251.648712,373.315460
z"/>
<path fill="#217D53" opacity="1.000000" stroke="none"
	d="
M389.866821,202.604675
	C386.688599,203.031265 383.314087,203.126022 379.482758,203.254150
	C378.142944,203.051422 377.259979,202.815338 376.194366,202.287003
	C380.564667,202.087433 385.117615,202.180130 389.866821,202.604675
z"/>
<path fill="#217D53" opacity="1.000000" stroke="none"
	d="
M250.165985,182.604614
	C249.884354,179.236908 249.749542,175.504074 249.762466,171.406250
	C250.044403,174.773987 250.178589,178.506729 250.165985,182.604614
z"/>
<path fill="#299766" opacity="1.000000" stroke="none"
	d="
M252.513702,410.204224
	C252.834961,410.474792 253.114395,411.021088 253.297638,411.746826
	C252.958252,411.444183 252.715073,410.962097 252.513702,410.204224
z"/>
<path fill="#31B078" opacity="1.000000" stroke="none"
	d="
M262.318512,420.730103
	C262.930298,420.646912 263.746826,420.819733 264.781952,421.225647
	C264.174774,421.301239 263.349030,421.143707 262.318512,420.730103
z"/>
<path fill="#31B078" opacity="1.000000" stroke="none"
	d="
M269.263855,421.617401
	C269.558929,421.314636 270.126465,421.076111 270.865295,420.967285
	C270.536499,421.291840 270.036438,421.486755 269.263855,421.617401
z"/>
<path fill="#36BD82" opacity="1.000000" stroke="none"
	d="
M312.211731,373.785156
	C312.355042,373.329285 312.741364,372.777283 313.359314,372.110107
	C313.212219,372.559662 312.833496,373.124359 312.211731,373.785156
z"/>
<path fill="#299766" opacity="1.000000" stroke="none"
	d="
M103.160469,298.094055
	C103.398056,297.960968 103.754745,298.025818 104.125748,298.248444
	C104.140060,298.406250 103.689041,298.505371 103.689041,298.505371
	C103.689041,298.505371 103.279564,298.291962 103.160469,298.094055
z"/>
<path fill="#31B078" opacity="1.000000" stroke="none"
	d="
M259.312592,419.211792
	C259.660645,419.202606 260.147095,419.448822 260.829651,419.888855
	C260.500854,419.877563 259.975922,419.672394 259.312592,419.211792
z"/>
<path fill="#249261" opacity="1.000000" stroke="none"
	d="
M250.437836,245.309235
	C253.242722,242.552826 256.509491,240.687057 258.537811,237.915085
	C266.375275,227.204285 273.751434,216.156784 281.497253,205.376862
	C282.388123,204.136993 284.467072,203.301010 286.085876,203.128357
	C289.380463,202.777008 292.736938,203.006561 296.533600,203.004150
	C293.658142,208.842194 290.419403,214.735031 286.930481,220.475845
	C285.310181,223.141907 283.181549,225.496155 281.321533,228.019913
	C275.648834,235.716934 269.954895,243.398849 264.347992,251.143646
	C260.872925,255.943726 257.575623,260.872314 254.119553,265.686523
	C253.288528,266.844086 252.143860,267.776489 250.852356,268.873932
	C250.484482,261.218170 250.407669,253.500900 250.437836,245.309235
z"/>
</svg>
